<?xml version="1.0" encoding="utf-8" standalone="no"?>
<!DOCTYPE svg PUBLIC "-//W3C//DTD SVG 1.1//EN"
  "http://www.w3.org/Graphics/SVG/1.1/DTD/svg11.dtd">
<svg xmlns:xlink="http://www.w3.org/1999/xlink" width="453.6pt" height="342.288pt" viewBox="0 0 453.6 342.288" xmlns="http://www.w3.org/2000/svg" version="1.1">
 <metadata>
  <rdf:RDF xmlns:dc="http://purl.org/dc/elements/1.1/" xmlns:cc="http://creativecommons.org/ns#" xmlns:rdf="http://www.w3.org/1999/02/22-rdf-syntax-ns#">
   <cc:Work>
    <dc:type rdf:resource="http://purl.org/dc/dcmitype/StillImage"/>
    <dc:date>2022-04-06T16:22:41.808443</dc:date>
    <dc:format>image/svg+xml</dc:format>
    <dc:creator>
     <cc:Agent>
      <dc:title>Matplotlib v3.5.1, https://matplotlib.org/</dc:title>
     </cc:Agent>
    </dc:creator>
   </cc:Work>
  </rdf:RDF>
 </metadata>
 <defs>
  <style type="text/css">*{stroke-linejoin: round; stroke-linecap: butt}</style>
 </defs>
 <g id="figure_1">
  <g id="patch_1">
   <path d="M 0 342.288 
L 453.6 342.288 
L 453.6 0 
L 0 0 
z
" style="fill: #ffffff"/>
  </g>
  <g id="axes_1">
   <g id="patch_2">
    <path d="M 40.989585 319.232323 
L 446.4 319.232323 
L 446.4 32.514776 
L 40.989585 32.514776 
z
" style="fill: #ffffff"/>
   </g>
   <g id="matplotlib.axis_1">
    <g id="xtick_1">
     <g id="line2d_1">
      <defs>
       <path id="m232be92ae2" d="M 0 0 
L 0 3.5 
" style="stroke: #000000; stroke-width: 0.8"/>
      </defs>
      <g>
       <use xlink:href="#m232be92ae2" x="59.417331" y="319.232323" style="stroke: #000000; stroke-width: 0.8"/>
      </g>
     </g>
     <g id="text_1">
      <!-- $\mathdefault{0}$ -->
      <g transform="translate(56.926663 333.150822)scale(0.1 -0.1)">
       <defs>
        <path id="CMR17-30" d="M 2688 2038 
C 2688 2430 2682 3099 2413 3613 
C 2176 4063 1798 4224 1466 4224 
C 1158 4224 768 4082 525 3620 
C 269 3137 243 2539 243 2038 
C 243 1671 250 1112 448 623 
C 723 -39 1216 -128 1466 -128 
C 1760 -128 2208 -7 2470 604 
C 2662 1048 2688 1568 2688 2038 
z
M 1466 -26 
C 1056 -26 813 328 723 816 
C 653 1196 653 1749 653 2109 
C 653 2604 653 3015 736 3407 
C 858 3954 1216 4121 1466 4121 
C 1728 4121 2067 3947 2189 3420 
C 2272 3054 2278 2623 2278 2109 
C 2278 1691 2278 1176 2202 797 
C 2067 96 1690 -26 1466 -26 
z
" transform="scale(0.015625)"/>
       </defs>
       <use xlink:href="#CMR17-30" transform="scale(0.996264)"/>
      </g>
     </g>
    </g>
    <g id="xtick_2">
     <g id="line2d_2">
      <g>
       <use xlink:href="#m232be92ae2" x="133.128316" y="319.232323" style="stroke: #000000; stroke-width: 0.8"/>
      </g>
     </g>
     <g id="text_2">
      <!-- $\mathdefault{20}$ -->
      <g transform="translate(128.14698 333.150822)scale(0.1 -0.1)">
       <defs>
        <path id="CMR17-32" d="M 2669 990 
L 2554 990 
C 2490 537 2438 460 2413 422 
C 2381 371 1920 371 1830 371 
L 602 371 
C 832 620 1280 1073 1824 1596 
C 2214 1966 2669 2400 2669 3033 
C 2669 3788 2067 4224 1395 4224 
C 691 4224 262 3603 262 3027 
C 262 2777 448 2745 525 2745 
C 589 2745 781 2783 781 3007 
C 781 3206 614 3264 525 3264 
C 486 3264 448 3257 422 3244 
C 544 3788 915 4057 1306 4057 
C 1862 4057 2227 3616 2227 3033 
C 2227 2477 1901 1998 1536 1583 
L 262 147 
L 262 0 
L 2515 0 
L 2669 990 
z
" transform="scale(0.015625)"/>
       </defs>
       <use xlink:href="#CMR17-32" transform="scale(0.996264)"/>
       <use xlink:href="#CMR17-30" transform="translate(45.690477 0)scale(0.996264)"/>
      </g>
     </g>
    </g>
    <g id="xtick_3">
     <g id="line2d_3">
      <g>
       <use xlink:href="#m232be92ae2" x="206.8393" y="319.232323" style="stroke: #000000; stroke-width: 0.8"/>
      </g>
     </g>
     <g id="text_3">
      <!-- $\mathdefault{40}$ -->
      <g transform="translate(201.857965 333.150822)scale(0.1 -0.1)">
       <defs>
        <path id="CMR17-34" d="M 2150 4147 
C 2150 4281 2144 4288 2029 4288 
L 128 1254 
L 128 1088 
L 1779 1088 
L 1779 460 
C 1779 230 1766 166 1318 166 
L 1197 166 
L 1197 0 
C 1402 12 1747 12 1965 12 
C 2182 12 2528 12 2733 0 
L 2733 166 
L 2611 166 
C 2163 166 2150 230 2150 460 
L 2150 1088 
L 2803 1088 
L 2803 1254 
L 2150 1254 
L 2150 4147 
z
M 1798 3723 
L 1798 1254 
L 256 1254 
L 1798 3723 
z
" transform="scale(0.015625)"/>
       </defs>
       <use xlink:href="#CMR17-34" transform="scale(0.996264)"/>
       <use xlink:href="#CMR17-30" transform="translate(45.690477 0)scale(0.996264)"/>
      </g>
     </g>
    </g>
    <g id="xtick_4">
     <g id="line2d_4">
      <g>
       <use xlink:href="#m232be92ae2" x="280.550285" y="319.232323" style="stroke: #000000; stroke-width: 0.8"/>
      </g>
     </g>
     <g id="text_4">
      <!-- $\mathdefault{60}$ -->
      <g transform="translate(275.568949 333.150822)scale(0.1 -0.1)">
       <defs>
        <path id="CMR17-36" d="M 678 2198 
C 678 3712 1395 4076 1811 4076 
C 1946 4076 2272 4049 2400 3782 
C 2298 3782 2106 3782 2106 3558 
C 2106 3385 2246 3328 2336 3328 
C 2394 3328 2566 3353 2566 3571 
C 2566 3987 2246 4224 1805 4224 
C 1043 4224 243 3411 243 2011 
C 243 257 966 -128 1478 -128 
C 2099 -128 2688 431 2688 1295 
C 2688 2101 2170 2688 1517 2688 
C 1126 2688 838 2430 678 1979 
L 678 2198 
z
M 1478 25 
C 691 25 691 1212 691 1450 
C 691 1914 909 2585 1504 2585 
C 1613 2585 1926 2585 2138 2140 
C 2253 1889 2253 1624 2253 1302 
C 2253 954 2253 696 2118 438 
C 1978 173 1773 25 1478 25 
z
" transform="scale(0.015625)"/>
       </defs>
       <use xlink:href="#CMR17-36" transform="scale(0.996264)"/>
       <use xlink:href="#CMR17-30" transform="translate(45.690477 0)scale(0.996264)"/>
      </g>
     </g>
    </g>
    <g id="xtick_5">
     <g id="line2d_5">
      <g>
       <use xlink:href="#m232be92ae2" x="354.261269" y="319.232323" style="stroke: #000000; stroke-width: 0.8"/>
      </g>
     </g>
     <g id="text_5">
      <!-- $\mathdefault{80}$ -->
      <g transform="translate(349.279934 333.150822)scale(0.1 -0.1)">
       <defs>
        <path id="CMR17-38" d="M 1741 2289 
C 2144 2494 2554 2803 2554 3298 
C 2554 3884 1990 4224 1472 4224 
C 890 4224 378 3800 378 3215 
C 378 3054 416 2777 666 2533 
C 730 2469 998 2276 1171 2154 
C 883 2006 211 1652 211 945 
C 211 282 838 -128 1459 -128 
C 2144 -128 2720 366 2720 1022 
C 2720 1607 2330 1877 2074 2051 
L 1741 2289 
z
M 902 2855 
C 851 2887 595 3086 595 3388 
C 595 3781 998 4076 1459 4076 
C 1965 4076 2336 3716 2336 3298 
C 2336 2700 1670 2359 1638 2359 
C 1632 2359 1626 2359 1574 2398 
L 902 2855 
z
M 2080 1536 
C 2176 1466 2483 1253 2483 861 
C 2483 385 2010 25 1472 25 
C 890 25 448 443 448 951 
C 448 1459 838 1884 1280 2083 
L 2080 1536 
z
" transform="scale(0.015625)"/>
       </defs>
       <use xlink:href="#CMR17-38" transform="scale(0.996264)"/>
       <use xlink:href="#CMR17-30" transform="translate(45.690477 0)scale(0.996264)"/>
      </g>
     </g>
    </g>
    <g id="xtick_6">
     <g id="line2d_6">
      <g>
       <use xlink:href="#m232be92ae2" x="427.972254" y="319.232323" style="stroke: #000000; stroke-width: 0.8"/>
      </g>
     </g>
     <g id="text_6">
      <!-- $\mathdefault{100}$ -->
      <g transform="translate(420.500251 333.150822)scale(0.1 -0.1)">
       <defs>
        <path id="CMR17-31" d="M 1702 4083 
C 1702 4217 1696 4224 1606 4224 
C 1357 3927 979 3833 621 3820 
C 602 3820 570 3820 563 3808 
C 557 3795 557 3782 557 3648 
C 755 3648 1088 3686 1344 3839 
L 1344 467 
C 1344 243 1331 166 781 166 
L 589 166 
L 589 0 
C 896 6 1216 12 1523 12 
C 1830 12 2150 6 2458 0 
L 2458 166 
L 2266 166 
C 1715 166 1702 236 1702 467 
L 1702 4083 
z
" transform="scale(0.015625)"/>
       </defs>
       <use xlink:href="#CMR17-31" transform="scale(0.996264)"/>
       <use xlink:href="#CMR17-30" transform="translate(45.690477 0)scale(0.996264)"/>
       <use xlink:href="#CMR17-30" transform="translate(91.380954 0)scale(0.996264)"/>
      </g>
     </g>
    </g>
   </g>
   <g id="matplotlib.axis_2">
    <g id="ytick_1">
     <g id="line2d_7">
      <defs>
       <path id="m60a1902e76" d="M 0 0 
L -3.5 0 
" style="stroke: #000000; stroke-width: 0.8"/>
      </defs>
      <g>
       <use xlink:href="#m60a1902e76" x="40.989585" y="239.246172" style="stroke: #000000; stroke-width: 0.8"/>
      </g>
     </g>
     <g id="text_7">
      <!-- $\mathdefault{10^{3}}$ -->
      <g transform="translate(20.055677 242.705421)scale(0.1 -0.1)">
       <defs>
        <path id="CMR17-33" d="M 1414 2176 
C 1984 2176 2234 1673 2234 1094 
C 2234 322 1824 25 1453 25 
C 1114 25 563 193 390 691 
C 422 678 454 678 486 678 
C 640 678 755 780 755 947 
C 755 1132 614 1216 486 1216 
C 378 1216 211 1164 211 927 
C 211 335 787 -128 1466 -128 
C 2176 -128 2720 432 2720 1087 
C 2720 1718 2208 2176 1600 2246 
C 2086 2347 2554 2776 2554 3353 
C 2554 3856 2048 4224 1472 4224 
C 890 4224 378 3862 378 3347 
C 378 3123 544 3084 627 3084 
C 762 3084 877 3167 877 3334 
C 877 3500 762 3584 627 3584 
C 602 3584 570 3584 544 3571 
C 730 3999 1235 4076 1459 4076 
C 1683 4076 2106 3966 2106 3347 
C 2106 3167 2080 2851 1862 2574 
C 1670 2329 1453 2316 1242 2297 
C 1210 2297 1062 2284 1037 2284 
C 992 2278 966 2272 966 2227 
C 966 2182 973 2176 1101 2176 
L 1414 2176 
z
" transform="scale(0.015625)"/>
       </defs>
       <use xlink:href="#CMR17-31" transform="scale(0.996264)"/>
       <use xlink:href="#CMR17-30" transform="translate(45.690477 0)scale(0.996264)"/>
       <use xlink:href="#CMR17-33" transform="translate(91.380954 36.153639)scale(0.697382)"/>
      </g>
     </g>
    </g>
    <g id="ytick_2">
     <g id="line2d_8">
      <g>
       <use xlink:href="#m60a1902e76" x="40.989585" y="151.200054" style="stroke: #000000; stroke-width: 0.8"/>
      </g>
     </g>
     <g id="text_8">
      <!-- $\mathdefault{10^{4}}$ -->
      <g transform="translate(20.055677 154.659304)scale(0.1 -0.1)">
       <use xlink:href="#CMR17-31" transform="scale(0.996264)"/>
       <use xlink:href="#CMR17-30" transform="translate(45.690477 0)scale(0.996264)"/>
       <use xlink:href="#CMR17-34" transform="translate(91.380954 36.153639)scale(0.697382)"/>
      </g>
     </g>
    </g>
    <g id="ytick_3">
     <g id="line2d_9">
      <g>
       <use xlink:href="#m60a1902e76" x="40.989585" y="63.153937" style="stroke: #000000; stroke-width: 0.8"/>
      </g>
     </g>
     <g id="text_9">
      <!-- $\mathdefault{10^{5}}$ -->
      <g transform="translate(20.055677 66.613186)scale(0.1 -0.1)">
       <defs>
        <path id="CMR17-35" d="M 730 3750 
C 794 3724 1056 3641 1325 3641 
C 1920 3641 2246 3961 2432 4140 
C 2432 4191 2432 4224 2394 4224 
C 2387 4224 2374 4224 2323 4198 
C 2099 4102 1837 4032 1517 4032 
C 1325 4032 1037 4055 723 4191 
C 653 4224 640 4224 634 4224 
C 602 4224 595 4217 595 4090 
L 595 2231 
C 595 2113 595 2080 659 2080 
C 691 2080 704 2093 736 2139 
C 941 2435 1222 2560 1542 2560 
C 1766 2560 2246 2415 2246 1293 
C 2246 1087 2246 716 2054 422 
C 1894 159 1645 25 1370 25 
C 947 25 518 319 403 812 
C 429 806 480 793 506 793 
C 589 793 749 838 749 1036 
C 749 1209 627 1280 506 1280 
C 358 1280 262 1190 262 1011 
C 262 454 704 -128 1382 -128 
C 2042 -128 2669 441 2669 1267 
C 2669 2054 2170 2662 1549 2662 
C 1222 2662 947 2540 730 2304 
L 730 3750 
z
" transform="scale(0.015625)"/>
       </defs>
       <use xlink:href="#CMR17-31" transform="scale(0.996264)"/>
       <use xlink:href="#CMR17-30" transform="translate(45.690477 0)scale(0.996264)"/>
       <use xlink:href="#CMR17-35" transform="translate(91.380954 36.153639)scale(0.697382)"/>
      </g>
     </g>
    </g>
    <g id="ytick_4">
     <g id="line2d_10">
      <defs>
       <path id="m927faf6737" d="M 0 0 
L -2 0 
" style="stroke: #000000; stroke-width: 0.6"/>
      </defs>
      <g>
       <use xlink:href="#m927faf6737" x="40.989585" y="300.787767" style="stroke: #000000; stroke-width: 0.6"/>
      </g>
     </g>
    </g>
    <g id="ytick_5">
     <g id="line2d_11">
      <g>
       <use xlink:href="#m927faf6737" x="40.989585" y="285.283615" style="stroke: #000000; stroke-width: 0.6"/>
      </g>
     </g>
    </g>
    <g id="ytick_6">
     <g id="line2d_12">
      <g>
       <use xlink:href="#m927faf6737" x="40.989585" y="274.283245" style="stroke: #000000; stroke-width: 0.6"/>
      </g>
     </g>
    </g>
    <g id="ytick_7">
     <g id="line2d_13">
      <g>
       <use xlink:href="#m927faf6737" x="40.989585" y="265.750694" style="stroke: #000000; stroke-width: 0.6"/>
      </g>
     </g>
    </g>
    <g id="ytick_8">
     <g id="line2d_14">
      <g>
       <use xlink:href="#m927faf6737" x="40.989585" y="258.779093" style="stroke: #000000; stroke-width: 0.6"/>
      </g>
     </g>
    </g>
    <g id="ytick_9">
     <g id="line2d_15">
      <g>
       <use xlink:href="#m927faf6737" x="40.989585" y="252.884688" style="stroke: #000000; stroke-width: 0.6"/>
      </g>
     </g>
    </g>
    <g id="ytick_10">
     <g id="line2d_16">
      <g>
       <use xlink:href="#m927faf6737" x="40.989585" y="247.778722" style="stroke: #000000; stroke-width: 0.6"/>
      </g>
     </g>
    </g>
    <g id="ytick_11">
     <g id="line2d_17">
      <g>
       <use xlink:href="#m927faf6737" x="40.989585" y="243.274941" style="stroke: #000000; stroke-width: 0.6"/>
      </g>
     </g>
    </g>
    <g id="ytick_12">
     <g id="line2d_18">
      <g>
       <use xlink:href="#m927faf6737" x="40.989585" y="212.741649" style="stroke: #000000; stroke-width: 0.6"/>
      </g>
     </g>
    </g>
    <g id="ytick_13">
     <g id="line2d_19">
      <g>
       <use xlink:href="#m927faf6737" x="40.989585" y="197.237498" style="stroke: #000000; stroke-width: 0.6"/>
      </g>
     </g>
    </g>
    <g id="ytick_14">
     <g id="line2d_20">
      <g>
       <use xlink:href="#m927faf6737" x="40.989585" y="186.237127" style="stroke: #000000; stroke-width: 0.6"/>
      </g>
     </g>
    </g>
    <g id="ytick_15">
     <g id="line2d_21">
      <g>
       <use xlink:href="#m927faf6737" x="40.989585" y="177.704577" style="stroke: #000000; stroke-width: 0.6"/>
      </g>
     </g>
    </g>
    <g id="ytick_16">
     <g id="line2d_22">
      <g>
       <use xlink:href="#m927faf6737" x="40.989585" y="170.732975" style="stroke: #000000; stroke-width: 0.6"/>
      </g>
     </g>
    </g>
    <g id="ytick_17">
     <g id="line2d_23">
      <g>
       <use xlink:href="#m927faf6737" x="40.989585" y="164.83857" style="stroke: #000000; stroke-width: 0.6"/>
      </g>
     </g>
    </g>
    <g id="ytick_18">
     <g id="line2d_24">
      <g>
       <use xlink:href="#m927faf6737" x="40.989585" y="159.732605" style="stroke: #000000; stroke-width: 0.6"/>
      </g>
     </g>
    </g>
    <g id="ytick_19">
     <g id="line2d_25">
      <g>
       <use xlink:href="#m927faf6737" x="40.989585" y="155.228824" style="stroke: #000000; stroke-width: 0.6"/>
      </g>
     </g>
    </g>
    <g id="ytick_20">
     <g id="line2d_26">
      <g>
       <use xlink:href="#m927faf6737" x="40.989585" y="124.695532" style="stroke: #000000; stroke-width: 0.6"/>
      </g>
     </g>
    </g>
    <g id="ytick_21">
     <g id="line2d_27">
      <g>
       <use xlink:href="#m927faf6737" x="40.989585" y="109.19138" style="stroke: #000000; stroke-width: 0.6"/>
      </g>
     </g>
    </g>
    <g id="ytick_22">
     <g id="line2d_28">
      <g>
       <use xlink:href="#m927faf6737" x="40.989585" y="98.19101" style="stroke: #000000; stroke-width: 0.6"/>
      </g>
     </g>
    </g>
    <g id="ytick_23">
     <g id="line2d_29">
      <g>
       <use xlink:href="#m927faf6737" x="40.989585" y="89.658459" style="stroke: #000000; stroke-width: 0.6"/>
      </g>
     </g>
    </g>
    <g id="ytick_24">
     <g id="line2d_30">
      <g>
       <use xlink:href="#m927faf6737" x="40.989585" y="82.686858" style="stroke: #000000; stroke-width: 0.6"/>
      </g>
     </g>
    </g>
    <g id="ytick_25">
     <g id="line2d_31">
      <g>
       <use xlink:href="#m927faf6737" x="40.989585" y="76.792453" style="stroke: #000000; stroke-width: 0.6"/>
      </g>
     </g>
    </g>
    <g id="ytick_26">
     <g id="line2d_32">
      <g>
       <use xlink:href="#m927faf6737" x="40.989585" y="71.686487" style="stroke: #000000; stroke-width: 0.6"/>
      </g>
     </g>
    </g>
    <g id="ytick_27">
     <g id="line2d_33">
      <g>
       <use xlink:href="#m927faf6737" x="40.989585" y="67.182706" style="stroke: #000000; stroke-width: 0.6"/>
      </g>
     </g>
    </g>
    <g id="ytick_28">
     <g id="line2d_34">
      <g>
       <use xlink:href="#m927faf6737" x="40.989585" y="36.649414" style="stroke: #000000; stroke-width: 0.6"/>
      </g>
     </g>
    </g>
    <g id="text_10">
     <!-- $J_t$ -->
     <g transform="translate(14.118498 180.140538)rotate(-90)scale(0.1 -0.1)">
      <defs>
       <path id="CMMI12-4a" d="M 3418 3911 
C 3469 4102 3482 4166 3795 4166 
C 3898 4166 3962 4166 3962 4281 
C 3962 4352 3904 4352 3878 4352 
C 3770 4352 3648 4339 3533 4339 
L 3181 4339 
C 2912 4339 2630 4352 2362 4352 
C 2304 4352 2227 4352 2227 4236 
C 2227 4172 2278 4172 2278 4166 
L 2438 4166 
C 2950 4166 2950 4115 2950 4019 
C 2950 4013 2950 3968 2925 3866 
L 2189 953 
C 2022 304 1594 0 1286 0 
C 1069 0 762 99 685 428 
C 710 422 742 415 768 415 
C 979 415 1146 601 1146 787 
C 1146 889 1082 1024 890 1024 
C 774 1024 506 959 506 543 
C 506 149 838 -128 1299 -128 
C 1882 -128 2509 304 2662 908 
L 3418 3911 
z
" transform="scale(0.015625)"/>
       <path id="CMMI12-74" d="M 1286 2566 
L 1875 2566 
C 1997 2566 2061 2566 2061 2681 
C 2061 2752 2022 2752 1894 2752 
L 1331 2752 
L 1568 3664 
C 1594 3752 1594 3764 1594 3808 
C 1594 3910 1510 3968 1427 3968 
C 1376 3968 1229 3948 1178 3746 
L 928 2752 
L 326 2752 
C 198 2752 141 2752 141 2630 
C 141 2566 186 2566 307 2566 
L 877 2566 
L 454 881 
C 403 657 384 593 384 510 
C 384 210 595 -64 954 -64 
C 1600 -64 1946 868 1946 913 
C 1946 951 1920 970 1882 970 
C 1869 970 1843 970 1830 944 
C 1824 938 1818 932 1773 830 
C 1638 510 1344 64 973 64 
C 781 64 768 223 768 364 
C 768 370 768 491 787 568 
L 1286 2566 
z
" transform="scale(0.015625)"/>
      </defs>
      <use xlink:href="#CMMI12-4a" transform="scale(0.996264)"/>
      <use xlink:href="#CMMI12-74" transform="translate(53.917955 -14.943915)scale(0.697382)"/>
     </g>
    </g>
   </g>
   <g id="line2d_35">
    <path d="M 59.417331 55.213041 
L 63.10288 45.547391 
L 66.788429 77.224562 
L 70.473979 116.4063 
L 74.159528 155.045836 
L 77.845077 180.792115 
L 81.530626 195.939006 
L 85.216176 224.258325 
L 88.901725 270.418219 
L 92.587274 297.235849 
L 96.272823 284.719825 
L 99.958372 244.00182 
L 103.643922 237.512624 
L 107.329471 251.813371 
L 111.01502 260.022951 
L 114.700569 262.241946 
L 118.386119 275.826621 
L 122.071668 271.396372 
L 125.757217 272.614476 
L 129.442766 246.274383 
L 133.128316 242.47855 
L 136.813865 280.55164 
L 140.499414 252.525252 
L 144.184963 253.658003 
L 147.870512 272.530866 
L 151.556062 256.372012 
L 155.241611 259.064403 
L 158.92716 270.264318 
L 162.612709 234.601754 
L 166.298259 212.768612 
L 169.983808 229.376456 
L 173.669357 268.471854 
L 177.354906 278.523381 
L 181.040456 264.594934 
L 184.726005 269.357947 
L 188.411554 266.517843 
L 192.097103 237.801226 
L 195.782652 232.822742 
L 199.468202 253.043177 
L 203.153751 276.209651 
L 206.8393 287.266277 
L 210.524849 269.466973 
L 214.210399 245.489447 
L 217.895948 248.16943 
L 221.581497 249.51523 
L 225.267046 244.593388 
L 228.952596 243.051744 
L 232.638145 261.093004 
L 236.323694 279.971945 
L 240.009243 280.34868 
L 243.694792 263.987677 
L 247.380342 272.72633 
L 251.065891 280.524571 
L 254.75144 272.955004 
L 258.436989 281.188227 
L 262.122539 294.123871 
L 265.808088 292.135053 
L 269.493637 275.291696 
L 273.179186 266.197126 
L 276.864735 306.199707 
L 280.550285 286.486848 
L 284.235834 290.770314 
L 287.921383 292.417484 
L 291.606932 280.357833 
L 295.292482 268.957419 
L 298.978031 238.560877 
L 302.66358 245.62401 
L 306.349129 277.531023 
L 310.034679 281.992297 
L 313.720228 277.001904 
L 317.405777 242.714645 
L 321.091326 248.191915 
L 324.776875 276.838815 
L 328.462425 287.564708 
L 332.147974 256.750062 
L 335.833523 251.724556 
L 339.519072 282.699331 
L 343.204622 296.674583 
L 346.890171 293.230589 
L 350.57572 277.865811 
L 354.261269 273.690317 
L 357.946819 238.684183 
L 361.632368 228.822768 
L 365.317917 246.79802 
L 369.003466 265.285274 
L 372.689015 244.482988 
L 376.374565 239.69912 
L 380.060114 260.890856 
L 383.745663 273.610966 
L 387.431212 279.861592 
L 391.116762 284.713751 
L 394.802311 260.555072 
L 398.48786 250.934369 
L 402.173409 261.4314 
L 405.858958 271.753438 
L 409.544508 283.009518 
L 413.230057 289.415073 
L 416.915606 240.831482 
L 420.601155 252.462933 
L 424.286705 263.466788 
L 427.972254 263.327597 
" clip-path="url(#pe34728763a)" style="fill: none; stroke: #1f77b4; stroke-width: 1.5; stroke-linecap: square"/>
   </g>
   <g id="line2d_36">
    <path d="M 59.417331 83.481113 
L 63.10288 76.046736 
L 66.788429 113.059582 
L 70.473979 150.384601 
L 74.159528 189.009528 
L 77.845077 209.166003 
L 81.530626 230.693623 
L 85.216176 248.979508 
L 88.901725 273.902139 
L 92.587274 287.980374 
L 96.272823 289.18886 
L 99.958372 263.009367 
L 103.643922 256.401921 
L 107.329471 263.784069 
L 111.01502 270.982671 
L 114.700569 269.214168 
L 118.386119 282.53767 
L 122.071668 279.587642 
L 125.757217 279.173874 
L 129.442766 258.722338 
L 133.128316 270.233842 
L 136.813865 295.606608 
L 140.499414 265.087229 
L 144.184963 265.494276 
L 147.870512 287.732546 
L 151.556062 273.307781 
L 155.241611 261.055053 
L 158.92716 273.643885 
L 162.612709 255.759394 
L 166.298259 239.7332 
L 169.983808 261.022904 
L 173.669357 272.299677 
L 177.354906 281.36299 
L 181.040456 270.70796 
L 184.726005 286.486071 
L 188.411554 279.718641 
L 192.097103 260.099749 
L 195.782652 257.88632 
L 199.468202 263.308175 
L 203.153751 283.734361 
L 206.8393 294.137876 
L 210.524849 279.991817 
L 214.210399 264.355944 
L 217.895948 272.573939 
L 221.581497 263.473263 
L 225.267046 257.169403 
L 228.952596 262.260986 
L 232.638145 270.090234 
L 236.323694 282.307919 
L 240.009243 287.949583 
L 243.694792 266.858829 
L 247.380342 284.994846 
L 251.065891 293.987222 
L 254.75144 278.616755 
L 258.436989 286.363923 
L 262.122539 297.045969 
L 265.808088 292.055974 
L 269.493637 283.225363 
L 273.179186 277.831381 
L 276.864735 304.379855 
L 280.550285 287.306094 
L 284.235834 290.73165 
L 287.921383 292.958229 
L 291.606932 282.990111 
L 295.292482 275.190542 
L 298.978031 259.641858 
L 302.66358 267.269162 
L 306.349129 291.544702 
L 310.034679 284.180292 
L 313.720228 290.780433 
L 317.405777 265.92669 
L 321.091326 265.0201 
L 324.776875 292.337104 
L 328.462425 290.517339 
L 332.147974 273.389166 
L 335.833523 276.514402 
L 339.519072 291.917249 
L 343.204622 301.71471 
L 346.890171 294.503138 
L 350.57572 286.260768 
L 354.261269 286.774272 
L 357.946819 255.615227 
L 361.632368 243.469901 
L 365.317917 274.367942 
L 369.003466 282.817944 
L 372.689015 267.849825 
L 376.374565 259.516041 
L 380.060114 277.351122 
L 383.745663 274.83828 
L 387.431212 283.754454 
L 391.116762 285.254332 
L 394.802311 267.935213 
L 398.48786 269.522708 
L 402.173409 277.628123 
L 405.858958 285.548665 
L 409.544508 287.953281 
L 413.230057 290.662108 
L 416.915606 252.804852 
L 420.601155 268.76167 
L 424.286705 275.710365 
L 427.972254 275.852405 
" clip-path="url(#pe34728763a)" style="fill: none; stroke: #ff7f0e; stroke-width: 1.5; stroke-linecap: square"/>
   </g>
   <g id="line2d_37">
    <path d="M 59.417331 83.481113 
L 63.10288 76.046736 
L 66.788429 113.059582 
L 70.473979 150.384601 
L 74.159528 189.009528 
L 77.845077 209.166003 
L 81.530626 230.693623 
L 85.216176 248.979508 
L 88.901725 273.902139 
L 92.587274 287.980374 
L 96.272823 289.18886 
L 99.958372 263.009367 
L 103.643922 256.401921 
L 107.329471 263.784069 
L 111.01502 270.982671 
L 114.700569 269.214168 
L 118.386119 282.53767 
L 122.071668 279.587642 
L 125.757217 279.173874 
L 129.442766 258.722338 
L 133.128316 270.233842 
L 136.813865 295.606608 
L 140.499414 265.087229 
L 144.184963 265.494276 
L 147.870512 287.732546 
L 151.556062 273.307781 
L 155.241611 261.055053 
L 158.92716 273.643885 
L 162.612709 255.759394 
L 166.298259 239.7332 
L 169.983808 261.022904 
L 173.669357 272.299677 
L 177.354906 281.36299 
L 181.040456 270.70796 
L 184.726005 286.486071 
L 188.411554 279.718641 
L 192.097103 260.099749 
L 195.782652 257.88632 
L 199.468202 263.308175 
L 203.153751 283.734361 
L 206.8393 294.137876 
L 210.524849 279.991817 
L 214.210399 264.355944 
L 217.895948 272.573939 
L 221.581497 263.473263 
L 225.267046 257.169403 
L 228.952596 262.260986 
L 232.638145 270.090234 
L 236.323694 282.307919 
L 240.009243 287.949583 
L 243.694792 266.858829 
L 247.380342 284.994846 
L 251.065891 293.987222 
L 254.75144 278.616755 
L 258.436989 286.363923 
L 262.122539 297.045969 
L 265.808088 292.055974 
L 269.493637 283.225363 
L 273.179186 277.831381 
L 276.864735 304.379855 
L 280.550285 287.306094 
L 284.235834 290.73165 
L 287.921383 292.958229 
L 291.606932 282.990111 
L 295.292482 275.190542 
L 298.978031 259.641858 
L 302.66358 267.269162 
L 306.349129 291.544702 
L 310.034679 284.180292 
L 313.720228 290.780433 
L 317.405777 265.92669 
L 321.091326 265.0201 
L 324.776875 292.337104 
L 328.462425 290.517339 
L 332.147974 273.389166 
L 335.833523 276.514402 
L 339.519072 291.917249 
L 343.204622 301.71471 
L 346.890171 294.503138 
L 350.57572 286.260768 
L 354.261269 286.774272 
L 357.946819 255.615227 
L 361.632368 243.469901 
L 365.317917 274.367942 
L 369.003466 282.817944 
L 372.689015 267.849825 
L 376.374565 259.516041 
L 380.060114 277.351122 
L 383.745663 274.83828 
L 387.431212 283.754454 
L 391.116762 285.254332 
L 394.802311 267.935213 
L 398.48786 269.522708 
L 402.173409 277.628123 
L 405.858958 285.548665 
L 409.544508 287.953281 
L 413.230057 290.662108 
L 416.915606 252.804852 
L 420.601155 268.76167 
L 424.286705 275.710365 
L 427.972254 275.852405 
" clip-path="url(#pe34728763a)" style="fill: none; stroke: #2ca02c; stroke-width: 1.5; stroke-linecap: square"/>
   </g>
   <g id="line2d_38">
    <path d="M 59.417331 83.481113 
L 63.10288 76.046736 
L 66.788429 112.654953 
L 70.473979 152.539669 
L 74.159528 194.681928 
L 77.845077 212.311339 
L 81.530626 234.082343 
L 85.216176 254.872472 
L 88.901725 277.620286 
L 92.587274 290.839738 
L 96.272823 291.022136 
L 99.958372 264.467184 
L 103.643922 257.589363 
L 107.329471 264.425638 
L 111.01502 270.520525 
L 114.700569 267.304911 
L 118.386119 287.262198 
L 122.071668 278.633 
L 125.757217 279.23063 
L 129.442766 258.168852 
L 133.128316 273.628201 
L 136.813865 295.741156 
L 140.499414 264.806422 
L 144.184963 265.136368 
L 147.870512 287.837607 
L 151.556062 273.313565 
L 155.241611 261.009807 
L 158.92716 274.921029 
L 162.612709 256.923107 
L 166.298259 241.101732 
L 169.983808 261.912602 
L 173.669357 276.690997 
L 177.354906 281.686948 
L 181.040456 274.528514 
L 184.726005 288.18043 
L 188.411554 276.883826 
L 192.097103 259.711943 
L 195.782652 256.688438 
L 199.468202 265.841039 
L 203.153751 283.811027 
L 206.8393 296.407284 
L 210.524849 280.342109 
L 214.210399 263.478875 
L 217.895948 271.211227 
L 221.581497 261.906746 
L 225.267046 257.3283 
L 228.952596 267.955787 
L 232.638145 274.794 
L 236.323694 288.37796 
L 240.009243 289.116801 
L 243.694792 267.307396 
L 247.380342 284.881878 
L 251.065891 292.882687 
L 254.75144 278.400698 
L 258.436989 290.361873 
L 262.122539 295.859771 
L 265.808088 292.518497 
L 269.493637 283.83535 
L 273.179186 279.501154 
L 276.864735 302.578852 
L 280.550285 286.565601 
L 284.235834 291.387275 
L 287.921383 293.608971 
L 291.606932 284.431133 
L 295.292482 275.322135 
L 298.978031 259.538301 
L 302.66358 266.8035 
L 306.349129 295.170887 
L 310.034679 284.346462 
L 313.720228 291.066901 
L 317.405777 265.857572 
L 321.091326 265.674686 
L 324.776875 293.358244 
L 328.462425 290.78058 
L 332.147974 273.274077 
L 335.833523 276.254025 
L 339.519072 290.519824 
L 343.204622 305.498037 
L 346.890171 293.705019 
L 350.57572 286.332159 
L 354.261269 286.214018 
L 357.946819 254.495801 
L 361.632368 243.800752 
L 365.317917 274.525756 
L 369.003466 283.340481 
L 372.689015 265.924464 
L 376.374565 258.714797 
L 380.060114 277.609467 
L 383.745663 274.610407 
L 387.431212 282.269006 
L 391.116762 284.931372 
L 394.802311 267.226115 
L 398.48786 269.494451 
L 402.173409 278.012298 
L 405.858958 285.538175 
L 409.544508 289.132426 
L 413.230057 292.128558 
L 416.915606 254.526226 
L 420.601155 268.648065 
L 424.286705 273.769024 
L 427.972254 282.428233 
" clip-path="url(#pe34728763a)" style="fill: none; stroke: #d62728; stroke-width: 1.5; stroke-linecap: square"/>
   </g>
   <g id="patch_3">
    <path d="M 40.989585 319.232323 
L 40.989585 32.514776 
" style="fill: none; stroke: #000000; stroke-width: 0.8; stroke-linejoin: miter; stroke-linecap: square"/>
   </g>
   <g id="patch_4">
    <path d="M 446.4 319.232323 
L 446.4 32.514776 
" style="fill: none; stroke: #000000; stroke-width: 0.8; stroke-linejoin: miter; stroke-linecap: square"/>
   </g>
   <g id="patch_5">
    <path d="M 40.989585 319.232323 
L 446.4 319.232323 
" style="fill: none; stroke: #000000; stroke-width: 0.8; stroke-linejoin: miter; stroke-linecap: square"/>
   </g>
   <g id="patch_6">
    <path d="M 40.989585 32.514776 
L 446.4 32.514776 
" style="fill: none; stroke: #000000; stroke-width: 0.8; stroke-linejoin: miter; stroke-linecap: square"/>
   </g>
   <g id="legend_1">
    <g id="patch_7">
     <path d="M 374.827643 96.263489 
L 439.4 96.263489 
Q 441.4 96.263489 441.4 94.263489 
L 441.4 39.514776 
Q 441.4 37.514776 439.4 37.514776 
L 374.827643 37.514776 
Q 372.827643 37.514776 372.827643 39.514776 
L 372.827643 94.263489 
Q 372.827643 96.263489 374.827643 96.263489 
z
" style="fill: #ffffff; opacity: 0.8; stroke: #cccccc; stroke-linejoin: miter"/>
    </g>
    <g id="line2d_39">
     <path d="M 376.827643 45.014776 
L 386.827643 45.014776 
L 396.827643 45.014776 
" style="fill: none; stroke: #1f77b4; stroke-width: 1.5; stroke-linecap: square"/>
    </g>
    <g id="text_11">
     <!-- Type: 1 -->
     <g transform="translate(404.827643 48.514776)scale(0.1 -0.1)">
      <defs>
       <path id="CMSS17-54" d="M 2317 3987 
L 2848 3987 
C 2925 3987 3002 3980 3078 3980 
L 3878 3980 
L 3878 4396 
L 218 4396 
L 218 3980 
L 1018 3980 
C 1094 3980 1171 3987 1248 3987 
L 1779 3987 
L 1779 0 
L 2317 0 
L 2317 3987 
z
" transform="scale(0.015625)"/>
       <path id="CMSS17-79" d="M 2675 2752 
L 2176 2752 
C 1632 1293 1446 701 1434 383 
L 1427 383 
C 1408 695 1126 1459 902 2006 
L 602 2752 
L 83 2752 
L 1216 14 
C 1146 -177 1043 -464 1011 -527 
C 870 -884 774 -884 672 -884 
C 646 -884 442 -877 211 -807 
L 250 -1229 
C 410 -1261 570 -1280 685 -1280 
C 845 -1280 1165 -1280 1459 -495 
L 2675 2752 
z
" transform="scale(0.015625)"/>
       <path id="CMSS17-70" d="M 966 275 
C 1178 70 1466 -64 1773 -64 
C 2368 -64 2880 553 2880 1382 
C 2880 2147 2496 2816 1946 2816 
C 1626 2816 1242 2700 954 2470 
L 954 2764 
L 480 2764 
L 480 -1280 
L 966 -1280 
L 966 275 
z
M 966 2088 
C 1018 2166 1235 2412 1587 2412 
C 2035 2412 2394 1946 2394 1382 
C 2394 741 1958 326 1530 326 
C 1402 326 1267 358 1139 468 
C 966 624 966 721 966 812 
L 966 2088 
z
" transform="scale(0.015625)"/>
       <path id="CMSS17-65" d="M 2502 1375 
C 2502 1587 2490 2001 2285 2347 
C 2061 2713 1696 2816 1421 2816 
C 755 2816 192 2184 192 1363 
C 192 579 774 -64 1510 -64 
C 1798 -64 2150 19 2470 249 
C 2470 275 2458 414 2451 421 
C 2451 433 2432 629 2432 655 
C 2125 408 1773 326 1517 326 
C 1107 326 666 667 646 1375 
L 2502 1375 
z
M 698 1728 
C 781 2086 1062 2425 1421 2425 
C 1517 2425 1965 2412 2080 1728 
L 698 1728 
z
" transform="scale(0.015625)"/>
       <path id="CMSS17-3a" d="M 1088 2752 
L 576 2752 
L 576 2239 
L 1088 2239 
L 1088 2752 
z
M 576 512 
L 576 0 
L 1088 0 
L 1088 512 
L 576 512 
z
" transform="scale(0.015625)"/>
       <path id="CMSS17-31" d="M 1818 4288 
L 1696 4288 
C 1350 3949 947 3902 538 3891 
L 538 3520 
C 723 3526 1024 3539 1325 3673 
L 1325 371 
L 570 371 
L 570 0 
L 2573 0 
L 2573 371 
L 1818 371 
L 1818 4288 
z
" transform="scale(0.015625)"/>
      </defs>
      <use xlink:href="#CMSS17-54" transform="scale(0.996264)"/>
      <use xlink:href="#CMSS17-79" transform="translate(56.012199 0)scale(0.996264)"/>
      <use xlink:href="#CMSS17-70" transform="translate(99.01234 0)scale(0.996264)"/>
      <use xlink:href="#CMSS17-65" transform="translate(149.819722 0)scale(0.996264)"/>
      <use xlink:href="#CMSS17-3a" transform="translate(191.458544 0)scale(0.996264)"/>
      <use xlink:href="#CMSS17-31" transform="translate(259.121556 0)scale(0.996264)"/>
     </g>
    </g>
    <g id="line2d_40">
     <path d="M 376.827643 58.951954 
L 386.827643 58.951954 
L 396.827643 58.951954 
" style="fill: none; stroke: #ff7f0e; stroke-width: 1.5; stroke-linecap: square"/>
    </g>
    <g id="text_12">
     <!-- Type: 2 -->
     <g transform="translate(404.827643 62.451954)scale(0.1 -0.1)">
      <defs>
       <path id="CMSS17-32" d="M 1651 1353 
C 1830 1538 2099 1761 2285 1984 
C 2464 2201 2701 2507 2701 2953 
C 2701 3655 2227 4288 1421 4288 
C 787 4288 422 3891 250 3272 
L 499 2928 
C 640 3508 838 3878 1338 3878 
C 1888 3878 2195 3431 2195 2940 
C 2195 2354 1747 1901 1408 1563 
C 1030 1187 659 805 301 409 
L 301 0 
L 2701 0 
L 2701 435 
L 1613 435 
C 1536 435 1459 428 1382 428 
L 742 428 
L 742 435 
L 1651 1353 
z
" transform="scale(0.015625)"/>
      </defs>
      <use xlink:href="#CMSS17-54" transform="scale(0.996264)"/>
      <use xlink:href="#CMSS17-79" transform="translate(56.012199 0)scale(0.996264)"/>
      <use xlink:href="#CMSS17-70" transform="translate(99.01234 0)scale(0.996264)"/>
      <use xlink:href="#CMSS17-65" transform="translate(149.819722 0)scale(0.996264)"/>
      <use xlink:href="#CMSS17-3a" transform="translate(191.458544 0)scale(0.996264)"/>
      <use xlink:href="#CMSS17-32" transform="translate(259.121556 0)scale(0.996264)"/>
     </g>
    </g>
    <g id="line2d_41">
     <path d="M 376.827643 72.889132 
L 386.827643 72.889132 
L 396.827643 72.889132 
" style="fill: none; stroke: #2ca02c; stroke-width: 1.5; stroke-linecap: square"/>
    </g>
    <g id="text_13">
     <!-- Type: 3 -->
     <g transform="translate(404.827643 76.389132)scale(0.1 -0.1)">
      <defs>
       <path id="CMSS17-33" d="M 1005 2060 
L 1440 2060 
C 2042 2060 2214 1532 2214 1164 
C 2214 662 1933 268 1472 268 
C 1114 268 608 449 320 926 
C 275 700 275 687 250 533 
C 550 89 1037 -128 1485 -128 
C 2214 -128 2752 481 2752 1158 
C 2752 1667 2400 2092 1920 2252 
C 2304 2463 2586 2860 2586 3321 
C 2586 3859 2093 4288 1491 4288 
C 941 4288 512 3948 333 3583 
C 378 3519 493 3334 550 3238 
C 691 3615 1056 3897 1485 3897 
C 1843 3897 2080 3660 2080 3321 
C 2080 2969 1856 2585 1478 2496 
C 1453 2496 1056 2457 1005 2451 
L 1005 2060 
z
" transform="scale(0.015625)"/>
      </defs>
      <use xlink:href="#CMSS17-54" transform="scale(0.996264)"/>
      <use xlink:href="#CMSS17-79" transform="translate(56.012199 0)scale(0.996264)"/>
      <use xlink:href="#CMSS17-70" transform="translate(99.01234 0)scale(0.996264)"/>
      <use xlink:href="#CMSS17-65" transform="translate(149.819722 0)scale(0.996264)"/>
      <use xlink:href="#CMSS17-3a" transform="translate(191.458544 0)scale(0.996264)"/>
      <use xlink:href="#CMSS17-33" transform="translate(259.121556 0)scale(0.996264)"/>
     </g>
    </g>
    <g id="line2d_42">
     <path d="M 376.827643 86.826311 
L 386.827643 86.826311 
L 396.827643 86.826311 
" style="fill: none; stroke: #d62728; stroke-width: 1.5; stroke-linecap: square"/>
    </g>
    <g id="text_14">
     <!-- Type: 4 -->
     <g transform="translate(404.827643 90.326311)scale(0.1 -0.1)">
      <defs>
       <path id="CMSS17-34" d="M 2253 1088 
L 2835 1088 
L 2835 1478 
L 2253 1478 
L 2253 4224 
L 1690 4224 
L 166 1478 
L 166 1088 
L 1747 1088 
L 1747 0 
L 2253 0 
L 2253 1088 
z
M 659 1478 
C 1030 2139 1766 3474 1766 3927 
L 1766 1478 
L 659 1478 
z
" transform="scale(0.015625)"/>
      </defs>
      <use xlink:href="#CMSS17-54" transform="scale(0.996264)"/>
      <use xlink:href="#CMSS17-79" transform="translate(56.012199 0)scale(0.996264)"/>
      <use xlink:href="#CMSS17-70" transform="translate(99.01234 0)scale(0.996264)"/>
      <use xlink:href="#CMSS17-65" transform="translate(149.819722 0)scale(0.996264)"/>
      <use xlink:href="#CMSS17-3a" transform="translate(191.458544 0)scale(0.996264)"/>
      <use xlink:href="#CMSS17-34" transform="translate(259.121556 0)scale(0.996264)"/>
     </g>
    </g>
   </g>
  </g>
  <g id="text_15">
   <!-- Stage cost comparisons -->
   <g transform="translate(169.737541 15.50218)scale(0.12 -0.12)">
    <defs>
     <path id="CMSS17-53" d="M 2797 4230 
C 2515 4396 2208 4544 1690 4544 
C 864 4544 333 3934 333 3309 
C 333 3064 403 2787 653 2504 
C 902 2220 1184 2143 1542 2053 
C 1690 2014 1939 1943 1984 1924 
C 2342 1782 2515 1454 2515 1144 
C 2515 738 2202 307 1645 307 
C 1453 307 890 339 358 829 
L 269 320 
C 794 -64 1363 -128 1651 -128 
C 2438 -128 3002 494 3002 1202 
C 3002 1460 2925 1789 2656 2092 
C 2394 2381 2163 2446 1638 2588 
C 1338 2665 1146 2717 986 2916 
C 877 3058 819 3193 819 3367 
C 819 3728 1126 4121 1690 4121 
C 1971 4121 2336 4063 2707 3715 
L 2797 4230 
z
" transform="scale(0.015625)"/>
     <path id="CMSS17-74" d="M 1069 2380 
L 1901 2380 
L 1901 2752 
L 1069 2752 
L 1069 3520 
L 614 3520 
L 614 2752 
L 109 2752 
L 109 2380 
L 602 2380 
L 602 751 
C 602 384 685 -64 1107 -64 
C 1427 -64 1722 25 2003 172 
L 1901 551 
C 1747 416 1562 339 1363 339 
C 1082 339 1069 699 1069 860 
L 1069 2380 
z
" transform="scale(0.015625)"/>
     <path id="CMSS17-61" d="M 2406 1789 
C 2406 2399 1978 2816 1402 2816 
C 1120 2816 813 2764 461 2559 
L 499 2133 
C 659 2250 934 2438 1395 2438 
C 1722 2438 1920 2185 1920 1782 
L 1920 1536 
C 896 1504 256 1209 256 711 
C 256 452 416 -64 947 -64 
C 1043 -64 1562 -52 1933 224 
L 1933 -13 
L 2406 -13 
L 2406 1789 
z
M 1920 824 
C 1920 711 1920 559 1728 446 
C 1562 339 1350 326 1261 326 
C 941 326 723 503 723 723 
C 723 1165 1722 1209 1920 1216 
L 1920 824 
z
" transform="scale(0.015625)"/>
     <path id="CMSS17-67" d="M 2848 2816 
C 2483 2809 2170 2739 1914 2617 
C 1702 2783 1485 2816 1338 2816 
C 781 2816 358 2356 358 1824 
C 358 1481 550 1222 563 1209 
C 448 1049 384 876 384 684 
C 384 460 474 300 544 211 
C 211 6 166 -308 166 -429 
C 166 -896 749 -1280 1498 -1280 
C 2253 -1280 2835 -896 2835 -423 
C 2835 460 1856 467 1587 467 
L 1069 467 
C 973 467 717 467 717 793 
C 717 921 774 1004 781 1011 
C 877 940 1075 832 1338 832 
C 1869 832 2310 1279 2310 1824 
C 2310 2128 2170 2349 2112 2425 
L 2131 2425 
C 2150 2425 2419 2444 2515 2444 
C 2720 2444 2739 2438 2918 2419 
L 2848 2816 
z
M 1338 1184 
C 1120 1184 813 1317 813 1824 
C 813 2375 1165 2463 1331 2463 
C 1549 2463 1856 2330 1856 1824 
C 1856 1272 1504 1184 1338 1184 
z
M 1581 0 
C 1734 0 2381 0 2381 -436 
C 2381 -711 1984 -928 1504 -928 
C 1018 -928 621 -717 621 -429 
C 621 -397 621 0 1062 0 
L 1581 0 
z
" transform="scale(0.015625)"/>
     <path id="CMSS17-63" d="M 2464 2540 
C 2464 2585 2170 2713 2093 2739 
C 1882 2816 1613 2816 1542 2816 
C 710 2816 211 2092 211 1363 
C 211 595 768 -64 1517 -64 
C 1946 -64 2253 76 2502 243 
L 2464 665 
C 2189 454 1869 339 1523 339 
C 1024 339 698 774 698 1369 
C 698 1830 909 2412 1549 2412 
C 1901 2412 2099 2342 2394 2143 
L 2464 2540 
z
" transform="scale(0.015625)"/>
     <path id="CMSS17-6f" d="M 2829 1356 
C 2829 2175 2221 2816 1504 2816 
C 768 2816 173 2156 173 1356 
C 173 544 787 -64 1498 -64 
C 2227 -64 2829 563 2829 1356 
z
M 1504 339 
C 1050 339 659 710 659 1407 
C 659 2150 1114 2425 1498 2425 
C 1914 2425 2342 2124 2342 1407 
C 2342 684 1926 339 1504 339 
z
" transform="scale(0.015625)"/>
     <path id="CMSS17-73" d="M 2061 2623 
C 1683 2803 1389 2816 1197 2816 
C 742 2816 198 2655 198 2009 
C 198 1363 902 1222 1094 1183 
C 1389 1126 1715 1062 1715 742 
C 1715 339 1254 339 1171 339 
C 915 339 563 409 243 639 
L 166 211 
C 531 0 883 -64 1178 -64 
C 1965 -64 2163 416 2163 780 
C 2163 1094 1984 1305 1862 1401 
C 1651 1567 1574 1587 1050 1695 
C 960 1708 646 1779 646 2067 
C 646 2431 1050 2431 1139 2431 
C 1555 2431 1811 2303 1984 2207 
L 2061 2623 
z
" transform="scale(0.015625)"/>
     <path id="CMSS17-6d" d="M 4288 1878 
C 4288 2309 4179 2816 3462 2816 
C 2982 2816 2694 2515 2566 2328 
C 2451 2668 2182 2816 1798 2816 
C 1363 2816 1088 2566 941 2386 
L 941 2783 
L 474 2783 
L 474 0 
L 960 0 
L 960 1556 
C 960 1936 1101 2425 1555 2425 
C 2138 2425 2138 2013 2138 1826 
L 2138 0 
L 2624 0 
L 2624 1556 
C 2624 1936 2765 2425 3219 2425 
C 3802 2425 3802 2013 3802 1826 
L 3802 0 
L 4288 0 
L 4288 1878 
z
" transform="scale(0.015625)"/>
     <path id="CMSS17-72" d="M 954 1369 
C 954 1974 1395 2379 1958 2392 
L 1958 2816 
C 1549 2809 1165 2604 934 2270 
L 934 2783 
L 480 2783 
L 480 0 
L 954 0 
L 954 1369 
z
" transform="scale(0.015625)"/>
     <path id="CMSS17-69" d="M 979 4224 
L 442 4224 
L 442 3686 
L 979 3686 
L 979 4224 
z
M 947 2752 
L 474 2752 
L 474 0 
L 947 0 
L 947 2752 
z
" transform="scale(0.015625)"/>
     <path id="CMSS17-6e" d="M 2618 1878 
C 2618 2283 2522 2816 1798 2816 
C 1389 2816 1120 2604 941 2386 
L 941 2783 
L 474 2783 
L 474 0 
L 960 0 
L 960 1556 
C 960 1962 1114 2425 1549 2425 
C 2112 2425 2131 2045 2131 1826 
L 2131 0 
L 2618 0 
L 2618 1878 
z
" transform="scale(0.015625)"/>
    </defs>
    <use xlink:href="#CMSS17-53" transform="scale(0.996264)"/>
    <use xlink:href="#CMSS17-74" transform="translate(52.048516 0)scale(0.996264)"/>
    <use xlink:href="#CMSS17-61" transform="translate(85.880083 0)scale(0.996264)"/>
    <use xlink:href="#CMSS17-67" transform="translate(130.802003 0)scale(0.996264)"/>
    <use xlink:href="#CMSS17-65" transform="translate(177.645627 0)scale(0.996264)"/>
    <use xlink:href="#CMSS17-63" transform="translate(250.513562 0)scale(0.996264)"/>
    <use xlink:href="#CMSS17-6f" transform="translate(292.152384 0)scale(0.996264)"/>
    <use xlink:href="#CMSS17-73" transform="translate(338.996007 0)scale(0.996264)"/>
    <use xlink:href="#CMSS17-74" transform="translate(374.909549 0)scale(0.996264)"/>
    <use xlink:href="#CMSS17-63" transform="translate(439.970229 0)scale(0.996264)"/>
    <use xlink:href="#CMSS17-6f" transform="translate(481.609051 0)scale(0.996264)"/>
    <use xlink:href="#CMSS17-6d" transform="translate(528.452674 0)scale(0.996264)"/>
    <use xlink:href="#CMSS17-70" transform="translate(602.681929 0)scale(0.996264)"/>
    <use xlink:href="#CMSS17-61" transform="translate(650.886872 0)scale(0.996264)"/>
    <use xlink:href="#CMSS17-72" transform="translate(693.206339 0)scale(0.996264)"/>
    <use xlink:href="#CMSS17-69" transform="translate(725.116111 0)scale(0.996264)"/>
    <use xlink:href="#CMSS17-73" transform="translate(747.296834 0)scale(0.996264)"/>
    <use xlink:href="#CMSS17-6f" transform="translate(783.210376 0)scale(0.996264)"/>
    <use xlink:href="#CMSS17-6e" transform="translate(830.054 0)scale(0.996264)"/>
    <use xlink:href="#CMSS17-73" transform="translate(878.258943 0)scale(0.996264)"/>
   </g>
  </g>
 </g>
 <defs>
  <clipPath id="pe34728763a">
   <rect x="40.989585" y="32.514776" width="405.410415" height="286.717548"/>
  </clipPath>
 </defs>
</svg>
