<?xml version="1.0" encoding="utf-8" standalone="no"?>
<!DOCTYPE svg PUBLIC "-//W3C//DTD SVG 1.1//EN"
  "http://www.w3.org/Graphics/SVG/1.1/DTD/svg11.dtd">
<svg xmlns:xlink="http://www.w3.org/1999/xlink" width="453.6pt" height="342.288pt" viewBox="0 0 453.6 342.288" xmlns="http://www.w3.org/2000/svg" version="1.1">
 <metadata>
  <rdf:RDF xmlns:dc="http://purl.org/dc/elements/1.1/" xmlns:cc="http://creativecommons.org/ns#" xmlns:rdf="http://www.w3.org/1999/02/22-rdf-syntax-ns#">
   <cc:Work>
    <dc:type rdf:resource="http://purl.org/dc/dcmitype/StillImage"/>
    <dc:date>2022-04-06T15:53:06.458208</dc:date>
    <dc:format>image/svg+xml</dc:format>
    <dc:creator>
     <cc:Agent>
      <dc:title>Matplotlib v3.5.1, https://matplotlib.org/</dc:title>
     </cc:Agent>
    </dc:creator>
   </cc:Work>
  </rdf:RDF>
 </metadata>
 <defs>
  <style type="text/css">*{stroke-linejoin: round; stroke-linecap: butt}</style>
 </defs>
 <g id="figure_1">
  <g id="patch_1">
   <path d="M 0 342.288 
L 453.6 342.288 
L 453.6 0 
L 0 0 
z
" style="fill: #ffffff"/>
  </g>
  <g id="axes_1">
   <g id="patch_2">
    <path d="M 40.989585 319.232323 
L 446.4 319.232323 
L 446.4 32.514776 
L 40.989585 32.514776 
z
" style="fill: #ffffff"/>
   </g>
   <g id="matplotlib.axis_1">
    <g id="xtick_1">
     <g id="line2d_1">
      <defs>
       <path id="m8b7e09a8c0" d="M 0 0 
L 0 3.5 
" style="stroke: #000000; stroke-width: 0.8"/>
      </defs>
      <g>
       <use xlink:href="#m8b7e09a8c0" x="59.417331" y="319.232323" style="stroke: #000000; stroke-width: 0.8"/>
      </g>
     </g>
     <g id="text_1">
      <!-- $\mathdefault{0}$ -->
      <g transform="translate(56.926663 333.150822)scale(0.1 -0.1)">
       <defs>
        <path id="CMR17-30" d="M 2688 2038 
C 2688 2430 2682 3099 2413 3613 
C 2176 4063 1798 4224 1466 4224 
C 1158 4224 768 4082 525 3620 
C 269 3137 243 2539 243 2038 
C 243 1671 250 1112 448 623 
C 723 -39 1216 -128 1466 -128 
C 1760 -128 2208 -7 2470 604 
C 2662 1048 2688 1568 2688 2038 
z
M 1466 -26 
C 1056 -26 813 328 723 816 
C 653 1196 653 1749 653 2109 
C 653 2604 653 3015 736 3407 
C 858 3954 1216 4121 1466 4121 
C 1728 4121 2067 3947 2189 3420 
C 2272 3054 2278 2623 2278 2109 
C 2278 1691 2278 1176 2202 797 
C 2067 96 1690 -26 1466 -26 
z
" transform="scale(0.015625)"/>
       </defs>
       <use xlink:href="#CMR17-30" transform="scale(0.996264)"/>
      </g>
     </g>
    </g>
    <g id="xtick_2">
     <g id="line2d_2">
      <g>
       <use xlink:href="#m8b7e09a8c0" x="133.128316" y="319.232323" style="stroke: #000000; stroke-width: 0.8"/>
      </g>
     </g>
     <g id="text_2">
      <!-- $\mathdefault{20}$ -->
      <g transform="translate(128.14698 333.150822)scale(0.1 -0.1)">
       <defs>
        <path id="CMR17-32" d="M 2669 990 
L 2554 990 
C 2490 537 2438 460 2413 422 
C 2381 371 1920 371 1830 371 
L 602 371 
C 832 620 1280 1073 1824 1596 
C 2214 1966 2669 2400 2669 3033 
C 2669 3788 2067 4224 1395 4224 
C 691 4224 262 3603 262 3027 
C 262 2777 448 2745 525 2745 
C 589 2745 781 2783 781 3007 
C 781 3206 614 3264 525 3264 
C 486 3264 448 3257 422 3244 
C 544 3788 915 4057 1306 4057 
C 1862 4057 2227 3616 2227 3033 
C 2227 2477 1901 1998 1536 1583 
L 262 147 
L 262 0 
L 2515 0 
L 2669 990 
z
" transform="scale(0.015625)"/>
       </defs>
       <use xlink:href="#CMR17-32" transform="scale(0.996264)"/>
       <use xlink:href="#CMR17-30" transform="translate(45.690477 0)scale(0.996264)"/>
      </g>
     </g>
    </g>
    <g id="xtick_3">
     <g id="line2d_3">
      <g>
       <use xlink:href="#m8b7e09a8c0" x="206.8393" y="319.232323" style="stroke: #000000; stroke-width: 0.8"/>
      </g>
     </g>
     <g id="text_3">
      <!-- $\mathdefault{40}$ -->
      <g transform="translate(201.857965 333.150822)scale(0.1 -0.1)">
       <defs>
        <path id="CMR17-34" d="M 2150 4147 
C 2150 4281 2144 4288 2029 4288 
L 128 1254 
L 128 1088 
L 1779 1088 
L 1779 460 
C 1779 230 1766 166 1318 166 
L 1197 166 
L 1197 0 
C 1402 12 1747 12 1965 12 
C 2182 12 2528 12 2733 0 
L 2733 166 
L 2611 166 
C 2163 166 2150 230 2150 460 
L 2150 1088 
L 2803 1088 
L 2803 1254 
L 2150 1254 
L 2150 4147 
z
M 1798 3723 
L 1798 1254 
L 256 1254 
L 1798 3723 
z
" transform="scale(0.015625)"/>
       </defs>
       <use xlink:href="#CMR17-34" transform="scale(0.996264)"/>
       <use xlink:href="#CMR17-30" transform="translate(45.690477 0)scale(0.996264)"/>
      </g>
     </g>
    </g>
    <g id="xtick_4">
     <g id="line2d_4">
      <g>
       <use xlink:href="#m8b7e09a8c0" x="280.550285" y="319.232323" style="stroke: #000000; stroke-width: 0.8"/>
      </g>
     </g>
     <g id="text_4">
      <!-- $\mathdefault{60}$ -->
      <g transform="translate(275.568949 333.150822)scale(0.1 -0.1)">
       <defs>
        <path id="CMR17-36" d="M 678 2198 
C 678 3712 1395 4076 1811 4076 
C 1946 4076 2272 4049 2400 3782 
C 2298 3782 2106 3782 2106 3558 
C 2106 3385 2246 3328 2336 3328 
C 2394 3328 2566 3353 2566 3571 
C 2566 3987 2246 4224 1805 4224 
C 1043 4224 243 3411 243 2011 
C 243 257 966 -128 1478 -128 
C 2099 -128 2688 431 2688 1295 
C 2688 2101 2170 2688 1517 2688 
C 1126 2688 838 2430 678 1979 
L 678 2198 
z
M 1478 25 
C 691 25 691 1212 691 1450 
C 691 1914 909 2585 1504 2585 
C 1613 2585 1926 2585 2138 2140 
C 2253 1889 2253 1624 2253 1302 
C 2253 954 2253 696 2118 438 
C 1978 173 1773 25 1478 25 
z
" transform="scale(0.015625)"/>
       </defs>
       <use xlink:href="#CMR17-36" transform="scale(0.996264)"/>
       <use xlink:href="#CMR17-30" transform="translate(45.690477 0)scale(0.996264)"/>
      </g>
     </g>
    </g>
    <g id="xtick_5">
     <g id="line2d_5">
      <g>
       <use xlink:href="#m8b7e09a8c0" x="354.261269" y="319.232323" style="stroke: #000000; stroke-width: 0.8"/>
      </g>
     </g>
     <g id="text_5">
      <!-- $\mathdefault{80}$ -->
      <g transform="translate(349.279934 333.150822)scale(0.1 -0.1)">
       <defs>
        <path id="CMR17-38" d="M 1741 2289 
C 2144 2494 2554 2803 2554 3298 
C 2554 3884 1990 4224 1472 4224 
C 890 4224 378 3800 378 3215 
C 378 3054 416 2777 666 2533 
C 730 2469 998 2276 1171 2154 
C 883 2006 211 1652 211 945 
C 211 282 838 -128 1459 -128 
C 2144 -128 2720 366 2720 1022 
C 2720 1607 2330 1877 2074 2051 
L 1741 2289 
z
M 902 2855 
C 851 2887 595 3086 595 3388 
C 595 3781 998 4076 1459 4076 
C 1965 4076 2336 3716 2336 3298 
C 2336 2700 1670 2359 1638 2359 
C 1632 2359 1626 2359 1574 2398 
L 902 2855 
z
M 2080 1536 
C 2176 1466 2483 1253 2483 861 
C 2483 385 2010 25 1472 25 
C 890 25 448 443 448 951 
C 448 1459 838 1884 1280 2083 
L 2080 1536 
z
" transform="scale(0.015625)"/>
       </defs>
       <use xlink:href="#CMR17-38" transform="scale(0.996264)"/>
       <use xlink:href="#CMR17-30" transform="translate(45.690477 0)scale(0.996264)"/>
      </g>
     </g>
    </g>
    <g id="xtick_6">
     <g id="line2d_6">
      <g>
       <use xlink:href="#m8b7e09a8c0" x="427.972254" y="319.232323" style="stroke: #000000; stroke-width: 0.8"/>
      </g>
     </g>
     <g id="text_6">
      <!-- $\mathdefault{100}$ -->
      <g transform="translate(420.500251 333.150822)scale(0.1 -0.1)">
       <defs>
        <path id="CMR17-31" d="M 1702 4083 
C 1702 4217 1696 4224 1606 4224 
C 1357 3927 979 3833 621 3820 
C 602 3820 570 3820 563 3808 
C 557 3795 557 3782 557 3648 
C 755 3648 1088 3686 1344 3839 
L 1344 467 
C 1344 243 1331 166 781 166 
L 589 166 
L 589 0 
C 896 6 1216 12 1523 12 
C 1830 12 2150 6 2458 0 
L 2458 166 
L 2266 166 
C 1715 166 1702 236 1702 467 
L 1702 4083 
z
" transform="scale(0.015625)"/>
       </defs>
       <use xlink:href="#CMR17-31" transform="scale(0.996264)"/>
       <use xlink:href="#CMR17-30" transform="translate(45.690477 0)scale(0.996264)"/>
       <use xlink:href="#CMR17-30" transform="translate(91.380954 0)scale(0.996264)"/>
      </g>
     </g>
    </g>
   </g>
   <g id="matplotlib.axis_2">
    <g id="ytick_1">
     <g id="line2d_7">
      <defs>
       <path id="mc497d04573" d="M 0 0 
L -3.5 0 
" style="stroke: #000000; stroke-width: 0.8"/>
      </defs>
      <g>
       <use xlink:href="#mc497d04573" x="40.989585" y="211.468405" style="stroke: #000000; stroke-width: 0.8"/>
      </g>
     </g>
     <g id="text_7">
      <!-- $\mathdefault{10^{3}}$ -->
      <g transform="translate(20.055677 214.927655)scale(0.1 -0.1)">
       <defs>
        <path id="CMR17-33" d="M 1414 2176 
C 1984 2176 2234 1673 2234 1094 
C 2234 322 1824 25 1453 25 
C 1114 25 563 193 390 691 
C 422 678 454 678 486 678 
C 640 678 755 780 755 947 
C 755 1132 614 1216 486 1216 
C 378 1216 211 1164 211 927 
C 211 335 787 -128 1466 -128 
C 2176 -128 2720 432 2720 1087 
C 2720 1718 2208 2176 1600 2246 
C 2086 2347 2554 2776 2554 3353 
C 2554 3856 2048 4224 1472 4224 
C 890 4224 378 3862 378 3347 
C 378 3123 544 3084 627 3084 
C 762 3084 877 3167 877 3334 
C 877 3500 762 3584 627 3584 
C 602 3584 570 3584 544 3571 
C 730 3999 1235 4076 1459 4076 
C 1683 4076 2106 3966 2106 3347 
C 2106 3167 2080 2851 1862 2574 
C 1670 2329 1453 2316 1242 2297 
C 1210 2297 1062 2284 1037 2284 
C 992 2278 966 2272 966 2227 
C 966 2182 973 2176 1101 2176 
L 1414 2176 
z
" transform="scale(0.015625)"/>
       </defs>
       <use xlink:href="#CMR17-31" transform="scale(0.996264)"/>
       <use xlink:href="#CMR17-30" transform="translate(45.690477 0)scale(0.996264)"/>
       <use xlink:href="#CMR17-33" transform="translate(91.380954 36.153639)scale(0.697382)"/>
      </g>
     </g>
    </g>
    <g id="ytick_2">
     <g id="line2d_8">
      <g>
       <use xlink:href="#mc497d04573" x="40.989585" y="88.960416" style="stroke: #000000; stroke-width: 0.8"/>
      </g>
     </g>
     <g id="text_8">
      <!-- $\mathdefault{10^{4}}$ -->
      <g transform="translate(20.055677 92.419665)scale(0.1 -0.1)">
       <use xlink:href="#CMR17-31" transform="scale(0.996264)"/>
       <use xlink:href="#CMR17-30" transform="translate(45.690477 0)scale(0.996264)"/>
       <use xlink:href="#CMR17-34" transform="translate(91.380954 36.153639)scale(0.697382)"/>
      </g>
     </g>
    </g>
    <g id="ytick_3">
     <g id="line2d_9">
      <defs>
       <path id="m45e89a865c" d="M 0 0 
L -2 0 
" style="stroke: #000000; stroke-width: 0.6"/>
      </defs>
      <g>
       <use xlink:href="#m45e89a865c" x="40.989585" y="297.097815" style="stroke: #000000; stroke-width: 0.6"/>
      </g>
     </g>
    </g>
    <g id="ytick_4">
     <g id="line2d_10">
      <g>
       <use xlink:href="#m45e89a865c" x="40.989585" y="275.525229" style="stroke: #000000; stroke-width: 0.6"/>
      </g>
     </g>
    </g>
    <g id="ytick_5">
     <g id="line2d_11">
      <g>
       <use xlink:href="#m45e89a865c" x="40.989585" y="260.219236" style="stroke: #000000; stroke-width: 0.6"/>
      </g>
     </g>
    </g>
    <g id="ytick_6">
     <g id="line2d_12">
      <g>
       <use xlink:href="#m45e89a865c" x="40.989585" y="248.346985" style="stroke: #000000; stroke-width: 0.6"/>
      </g>
     </g>
    </g>
    <g id="ytick_7">
     <g id="line2d_13">
      <g>
       <use xlink:href="#m45e89a865c" x="40.989585" y="238.64665" style="stroke: #000000; stroke-width: 0.6"/>
      </g>
     </g>
    </g>
    <g id="ytick_8">
     <g id="line2d_14">
      <g>
       <use xlink:href="#m45e89a865c" x="40.989585" y="230.445133" style="stroke: #000000; stroke-width: 0.6"/>
      </g>
     </g>
    </g>
    <g id="ytick_9">
     <g id="line2d_15">
      <g>
       <use xlink:href="#m45e89a865c" x="40.989585" y="223.340656" style="stroke: #000000; stroke-width: 0.6"/>
      </g>
     </g>
    </g>
    <g id="ytick_10">
     <g id="line2d_16">
      <g>
       <use xlink:href="#m45e89a865c" x="40.989585" y="217.074063" style="stroke: #000000; stroke-width: 0.6"/>
      </g>
     </g>
    </g>
    <g id="ytick_11">
     <g id="line2d_17">
      <g>
       <use xlink:href="#m45e89a865c" x="40.989585" y="174.589826" style="stroke: #000000; stroke-width: 0.6"/>
      </g>
     </g>
    </g>
    <g id="ytick_12">
     <g id="line2d_18">
      <g>
       <use xlink:href="#m45e89a865c" x="40.989585" y="153.01724" style="stroke: #000000; stroke-width: 0.6"/>
      </g>
     </g>
    </g>
    <g id="ytick_13">
     <g id="line2d_19">
      <g>
       <use xlink:href="#m45e89a865c" x="40.989585" y="137.711246" style="stroke: #000000; stroke-width: 0.6"/>
      </g>
     </g>
    </g>
    <g id="ytick_14">
     <g id="line2d_20">
      <g>
       <use xlink:href="#m45e89a865c" x="40.989585" y="125.838996" style="stroke: #000000; stroke-width: 0.6"/>
      </g>
     </g>
    </g>
    <g id="ytick_15">
     <g id="line2d_21">
      <g>
       <use xlink:href="#m45e89a865c" x="40.989585" y="116.13866" style="stroke: #000000; stroke-width: 0.6"/>
      </g>
     </g>
    </g>
    <g id="ytick_16">
     <g id="line2d_22">
      <g>
       <use xlink:href="#m45e89a865c" x="40.989585" y="107.937144" style="stroke: #000000; stroke-width: 0.6"/>
      </g>
     </g>
    </g>
    <g id="ytick_17">
     <g id="line2d_23">
      <g>
       <use xlink:href="#m45e89a865c" x="40.989585" y="100.832667" style="stroke: #000000; stroke-width: 0.6"/>
      </g>
     </g>
    </g>
    <g id="ytick_18">
     <g id="line2d_24">
      <g>
       <use xlink:href="#m45e89a865c" x="40.989585" y="94.566074" style="stroke: #000000; stroke-width: 0.6"/>
      </g>
     </g>
    </g>
    <g id="ytick_19">
     <g id="line2d_25">
      <g>
       <use xlink:href="#m45e89a865c" x="40.989585" y="52.081837" style="stroke: #000000; stroke-width: 0.6"/>
      </g>
     </g>
    </g>
    <g id="text_9">
     <!-- $J_t$ -->
     <g transform="translate(14.118498 180.140538)rotate(-90)scale(0.1 -0.1)">
      <defs>
       <path id="CMMI12-4a" d="M 3418 3911 
C 3469 4102 3482 4166 3795 4166 
C 3898 4166 3962 4166 3962 4281 
C 3962 4352 3904 4352 3878 4352 
C 3770 4352 3648 4339 3533 4339 
L 3181 4339 
C 2912 4339 2630 4352 2362 4352 
C 2304 4352 2227 4352 2227 4236 
C 2227 4172 2278 4172 2278 4166 
L 2438 4166 
C 2950 4166 2950 4115 2950 4019 
C 2950 4013 2950 3968 2925 3866 
L 2189 953 
C 2022 304 1594 0 1286 0 
C 1069 0 762 99 685 428 
C 710 422 742 415 768 415 
C 979 415 1146 601 1146 787 
C 1146 889 1082 1024 890 1024 
C 774 1024 506 959 506 543 
C 506 149 838 -128 1299 -128 
C 1882 -128 2509 304 2662 908 
L 3418 3911 
z
" transform="scale(0.015625)"/>
       <path id="CMMI12-74" d="M 1286 2566 
L 1875 2566 
C 1997 2566 2061 2566 2061 2681 
C 2061 2752 2022 2752 1894 2752 
L 1331 2752 
L 1568 3664 
C 1594 3752 1594 3764 1594 3808 
C 1594 3910 1510 3968 1427 3968 
C 1376 3968 1229 3948 1178 3746 
L 928 2752 
L 326 2752 
C 198 2752 141 2752 141 2630 
C 141 2566 186 2566 307 2566 
L 877 2566 
L 454 881 
C 403 657 384 593 384 510 
C 384 210 595 -64 954 -64 
C 1600 -64 1946 868 1946 913 
C 1946 951 1920 970 1882 970 
C 1869 970 1843 970 1830 944 
C 1824 938 1818 932 1773 830 
C 1638 510 1344 64 973 64 
C 781 64 768 223 768 364 
C 768 370 768 491 787 568 
L 1286 2566 
z
" transform="scale(0.015625)"/>
      </defs>
      <use xlink:href="#CMMI12-4a" transform="scale(0.996264)"/>
      <use xlink:href="#CMMI12-74" transform="translate(53.917955 -14.943915)scale(0.697382)"/>
     </g>
    </g>
   </g>
   <g id="line2d_26">
    <path d="M 59.417331 65.103724 
L 63.10288 45.547391 
L 66.788429 52.213323 
L 70.473979 60.330903 
L 74.159528 67.362335 
L 77.845077 74.816531 
L 81.530626 80.332042 
L 85.216176 94.553057 
L 88.901725 98.872175 
L 92.587274 116.609157 
L 96.272823 137.986458 
L 99.958372 150.021678 
L 103.643922 159.640899 
L 107.329471 166.072665 
L 111.01502 181.399115 
L 114.700569 199.424585 
L 118.386119 189.999125 
L 122.071668 175.130573 
L 125.757217 194.021293 
L 129.442766 206.162809 
L 133.128316 203.046552 
L 136.813865 200.879235 
L 140.499414 195.460223 
L 144.184963 185.295774 
L 147.870512 186.150028 
L 151.556062 193.666634 
L 155.241611 182.991147 
L 158.92716 183.071591 
L 162.612709 186.049228 
L 166.298259 184.628367 
L 169.983808 189.371451 
L 173.669357 178.132058 
L 177.354906 182.852826 
L 181.040456 176.238197 
L 184.726005 168.156279 
L 188.411554 163.054799 
L 192.097103 161.415391 
L 195.782652 175.805929 
L 199.468202 176.729533 
L 203.153751 182.747577 
L 206.8393 185.904579 
L 210.524849 189.408223 
L 214.210399 188.303718 
L 217.895948 196.562197 
L 221.581497 189.794481 
L 225.267046 204.389821 
L 228.952596 208.087304 
L 232.638145 213.11541 
L 236.323694 223.60864 
L 240.009243 246.886299 
L 243.694792 258.390494 
L 247.380342 306.199707 
L 251.065891 281.365925 
L 254.75144 289.757178 
L 258.436989 273.079297 
L 262.122539 277.995535 
L 265.808088 269.060095 
L 269.493637 261.058204 
L 273.179186 254.54517 
L 276.864735 283.796946 
L 280.550285 294.994212 
L 284.235834 272.594201 
L 287.921383 279.597073 
L 291.606932 281.084688 
L 295.292482 282.914802 
L 298.978031 287.446427 
L 302.66358 270.587024 
L 306.349129 258.860768 
L 310.034679 251.38956 
L 313.720228 248.548345 
L 317.405777 242.528935 
L 321.091326 262.210048 
L 324.776875 248.168588 
L 328.462425 268.909645 
L 332.147974 286.203504 
L 335.833523 281.136169 
L 339.519072 265.627434 
L 343.204622 290.957454 
L 346.890171 267.193942 
L 350.57572 273.509915 
L 354.261269 253.231617 
L 357.946819 253.058746 
L 361.632368 242.233921 
L 365.317917 223.608317 
L 369.003466 243.346543 
L 372.689015 271.446806 
L 376.374565 250.170324 
L 380.060114 238.833335 
L 383.745663 250.368758 
L 387.431212 251.54002 
L 391.116762 267.296478 
L 394.802311 260.835912 
L 398.48786 267.380353 
L 402.173409 280.894016 
L 405.858958 274.908405 
L 409.544508 287.908431 
L 413.230057 293.093368 
L 416.915606 295.359167 
L 420.601155 287.630185 
L 424.286705 258.421464 
L 427.972254 259.930571 
" clip-path="url(#pf7dd29be9f)" style="fill: none; stroke: #1f77b4; stroke-width: 1.5; stroke-linecap: square"/>
   </g>
   <g id="line2d_27">
    <path d="M 59.417331 69.776122 
L 63.10288 61.538979 
L 66.788429 79.238611 
L 70.473979 92.881263 
L 74.159528 112.479124 
L 77.845077 130.041716 
L 81.530626 151.043224 
L 85.216176 170.513201 
L 88.901725 186.831482 
L 92.587274 212.018347 
L 96.272823 237.43914 
L 99.958372 261.601112 
L 103.643922 270.184426 
L 107.329471 269.917035 
L 111.01502 266.407511 
L 114.700569 290.307581 
L 118.386119 296.168457 
L 122.071668 250.313599 
L 125.757217 275.395052 
L 129.442766 274.210987 
L 133.128316 292.103802 
L 136.813865 276.612662 
L 140.499414 262.751376 
L 144.184963 249.489953 
L 147.870512 253.477014 
L 151.556062 257.272011 
L 155.241611 255.615104 
L 158.92716 255.112572 
L 162.612709 255.359497 
L 166.298259 259.554944 
L 169.983808 271.034976 
L 173.669357 245.305964 
L 177.354906 236.153574 
L 181.040456 243.169515 
L 184.726005 232.843347 
L 188.411554 229.816244 
L 192.097103 229.975093 
L 195.782652 241.621696 
L 199.468202 246.612064 
L 203.153751 242.2866 
L 206.8393 263.109876 
L 210.524849 269.743373 
L 214.210399 264.618108 
L 217.895948 257.497352 
L 221.581497 265.008765 
L 225.267046 267.621639 
L 228.952596 288.342754 
L 232.638145 286.364267 
L 236.323694 285.559046 
L 240.009243 275.168547 
L 243.694792 247.634394 
L 247.380342 272.89828 
L 251.065891 261.68448 
L 254.75144 285.68904 
L 258.436989 270.272447 
L 262.122539 264.709143 
L 265.808088 268.11006 
L 269.493637 256.239309 
L 273.179186 250.353561 
L 276.864735 281.868208 
L 280.550285 296.495005 
L 284.235834 271.912272 
L 287.921383 279.776031 
L 291.606932 287.879235 
L 295.292482 284.23948 
L 298.978031 284.529452 
L 302.66358 271.894947 
L 306.349129 261.351361 
L 310.034679 258.587031 
L 313.720228 265.346307 
L 317.405777 267.573735 
L 321.091326 285.311548 
L 324.776875 254.884087 
L 328.462425 285.068536 
L 332.147974 292.41713 
L 335.833523 277.597897 
L 339.519072 257.647513 
L 343.204622 282.886561 
L 346.890171 258.620443 
L 350.57572 257.132334 
L 354.261269 256.555071 
L 357.946819 262.827598 
L 361.632368 252.125296 
L 365.317917 236.118217 
L 369.003466 261.122291 
L 372.689015 282.536964 
L 376.374565 258.632208 
L 380.060114 263.637817 
L 383.745663 261.379626 
L 387.431212 273.999161 
L 391.116762 282.492868 
L 394.802311 292.567149 
L 398.48786 289.958912 
L 402.173409 286.036667 
L 405.858958 280.888859 
L 409.544508 284.96245 
L 413.230057 288.044981 
L 416.915606 291.529474 
L 420.601155 296.009851 
L 424.286705 265.225486 
L 427.972254 257.432291 
" clip-path="url(#pf7dd29be9f)" style="fill: none; stroke: #ff7f0e; stroke-width: 1.5; stroke-linecap: square"/>
   </g>
   <g id="line2d_28">
    <path d="M 59.417331 69.776122 
L 63.10288 61.538979 
L 66.788429 79.238611 
L 70.473979 92.881263 
L 74.159528 112.479124 
L 77.845077 130.041716 
L 81.530626 151.043224 
L 85.216176 170.513201 
L 88.901725 186.831482 
L 92.587274 212.018347 
L 96.272823 237.43914 
L 99.958372 261.601112 
L 103.643922 270.184426 
L 107.329471 269.917035 
L 111.01502 266.407511 
L 114.700569 290.307581 
L 118.386119 296.168457 
L 122.071668 250.313599 
L 125.757217 275.395052 
L 129.442766 274.210987 
L 133.128316 292.103802 
L 136.813865 276.612662 
L 140.499414 262.751376 
L 144.184963 249.489953 
L 147.870512 253.477014 
L 151.556062 257.272011 
L 155.241611 255.615104 
L 158.92716 255.112572 
L 162.612709 255.359497 
L 166.298259 259.554944 
L 169.983808 271.034976 
L 173.669357 245.305964 
L 177.354906 236.153574 
L 181.040456 243.169515 
L 184.726005 232.843347 
L 188.411554 229.816244 
L 192.097103 229.975093 
L 195.782652 241.621696 
L 199.468202 246.612064 
L 203.153751 242.2866 
L 206.8393 263.109876 
L 210.524849 269.743373 
L 214.210399 264.618108 
L 217.895948 257.497352 
L 221.581497 265.008765 
L 225.267046 267.621639 
L 228.952596 288.342754 
L 232.638145 286.364267 
L 236.323694 285.559046 
L 240.009243 275.168547 
L 243.694792 247.634394 
L 247.380342 272.89828 
L 251.065891 261.68448 
L 254.75144 285.68904 
L 258.436989 270.272447 
L 262.122539 264.709143 
L 265.808088 268.11006 
L 269.493637 256.239309 
L 273.179186 250.353561 
L 276.864735 281.868208 
L 280.550285 296.495005 
L 284.235834 271.912272 
L 287.921383 279.776031 
L 291.606932 287.879235 
L 295.292482 284.23948 
L 298.978031 284.529452 
L 302.66358 271.894947 
L 306.349129 261.351361 
L 310.034679 258.587031 
L 313.720228 265.346307 
L 317.405777 267.573735 
L 321.091326 285.311548 
L 324.776875 254.884087 
L 328.462425 285.068536 
L 332.147974 292.41713 
L 335.833523 277.597897 
L 339.519072 257.647513 
L 343.204622 282.886561 
L 346.890171 258.620443 
L 350.57572 257.132334 
L 354.261269 256.555071 
L 357.946819 262.827598 
L 361.632368 252.125296 
L 365.317917 236.118217 
L 369.003466 261.122291 
L 372.689015 282.536964 
L 376.374565 258.632208 
L 380.060114 263.637817 
L 383.745663 261.379626 
L 387.431212 273.999161 
L 391.116762 282.492868 
L 394.802311 292.567149 
L 398.48786 289.958912 
L 402.173409 286.036667 
L 405.858958 280.888859 
L 409.544508 284.96245 
L 413.230057 288.044981 
L 416.915606 291.529474 
L 420.601155 296.009851 
L 424.286705 265.225486 
L 427.972254 257.432291 
" clip-path="url(#pf7dd29be9f)" style="fill: none; stroke: #2ca02c; stroke-width: 1.5; stroke-linecap: square"/>
   </g>
   <g id="line2d_29">
    <path d="M 59.417331 69.776122 
L 63.10288 61.071734 
L 66.788429 79.01957 
L 70.473979 93.338157 
L 74.159528 117.030119 
L 77.845077 131.155756 
L 81.530626 152.048952 
L 85.216176 174.620487 
L 88.901725 192.537888 
L 92.587274 213.445404 
L 96.272823 238.914139 
L 99.958372 270.964613 
L 103.643922 275.546578 
L 107.329471 268.85289 
L 111.01502 265.410601 
L 114.700569 289.636341 
L 118.386119 295.798621 
L 122.071668 257.438795 
L 125.757217 281.653796 
L 129.442766 273.740658 
L 133.128316 291.00066 
L 136.813865 278.103187 
L 140.499414 264.01524 
L 144.184963 251.497906 
L 147.870512 262.058444 
L 151.556062 262.782832 
L 155.241611 258.039321 
L 158.92716 257.342576 
L 162.612709 257.081961 
L 166.298259 260.388521 
L 169.983808 274.139808 
L 173.669357 242.897083 
L 177.354906 238.172857 
L 181.040456 243.906791 
L 184.726005 235.750508 
L 188.411554 230.473196 
L 192.097103 232.372861 
L 195.782652 240.239381 
L 199.468202 253.788513 
L 203.153751 247.799605 
L 206.8393 267.232343 
L 210.524849 268.989934 
L 214.210399 266.840823 
L 217.895948 255.853418 
L 221.581497 269.420142 
L 225.267046 268.349864 
L 228.952596 289.757758 
L 232.638145 286.964648 
L 236.323694 283.563508 
L 240.009243 274.642804 
L 243.694792 247.74396 
L 247.380342 271.906575 
L 251.065891 260.515015 
L 254.75144 290.199087 
L 258.436989 273.756405 
L 262.122539 263.09742 
L 265.808088 262.551762 
L 269.493637 256.470952 
L 273.179186 250.938937 
L 276.864735 278.737433 
L 280.550285 298.556741 
L 284.235834 271.119906 
L 287.921383 281.182462 
L 291.606932 282.462909 
L 295.292482 283.834375 
L 298.978031 284.527303 
L 302.66358 273.141217 
L 306.349129 262.764333 
L 310.034679 259.875074 
L 313.720228 268.706816 
L 317.405777 269.22438 
L 321.091326 286.917561 
L 324.776875 255.906668 
L 328.462425 286.018435 
L 332.147974 294.175019 
L 335.833523 277.519566 
L 339.519072 256.46869 
L 343.204622 281.941333 
L 346.890171 259.349972 
L 350.57572 262.058388 
L 354.261269 254.91769 
L 357.946819 263.243892 
L 361.632368 252.687137 
L 365.317917 236.12315 
L 369.003466 262.552034 
L 372.689015 283.907471 
L 376.374565 258.439947 
L 380.060114 264.187146 
L 383.745663 261.754384 
L 387.431212 273.018155 
L 391.116762 282.5099 
L 394.802311 293.017984 
L 398.48786 290.285282 
L 402.173409 284.121989 
L 405.858958 279.857522 
L 409.544508 283.587676 
L 413.230057 287.820299 
L 416.915606 291.374829 
L 420.601155 296.654901 
L 424.286705 264.906895 
L 427.972254 260.688007 
" clip-path="url(#pf7dd29be9f)" style="fill: none; stroke: #d62728; stroke-width: 1.5; stroke-linecap: square"/>
   </g>
   <g id="patch_3">
    <path d="M 40.989585 319.232323 
L 40.989585 32.514776 
" style="fill: none; stroke: #000000; stroke-width: 0.8; stroke-linejoin: miter; stroke-linecap: square"/>
   </g>
   <g id="patch_4">
    <path d="M 446.4 319.232323 
L 446.4 32.514776 
" style="fill: none; stroke: #000000; stroke-width: 0.8; stroke-linejoin: miter; stroke-linecap: square"/>
   </g>
   <g id="patch_5">
    <path d="M 40.989585 319.232323 
L 446.4 319.232323 
" style="fill: none; stroke: #000000; stroke-width: 0.8; stroke-linejoin: miter; stroke-linecap: square"/>
   </g>
   <g id="patch_6">
    <path d="M 40.989585 32.514776 
L 446.4 32.514776 
" style="fill: none; stroke: #000000; stroke-width: 0.8; stroke-linejoin: miter; stroke-linecap: square"/>
   </g>
   <g id="legend_1">
    <g id="patch_7">
     <path d="M 374.827643 96.263489 
L 439.4 96.263489 
Q 441.4 96.263489 441.4 94.263489 
L 441.4 39.514776 
Q 441.4 37.514776 439.4 37.514776 
L 374.827643 37.514776 
Q 372.827643 37.514776 372.827643 39.514776 
L 372.827643 94.263489 
Q 372.827643 96.263489 374.827643 96.263489 
z
" style="fill: #ffffff; opacity: 0.8; stroke: #cccccc; stroke-linejoin: miter"/>
    </g>
    <g id="line2d_30">
     <path d="M 376.827643 45.014776 
L 386.827643 45.014776 
L 396.827643 45.014776 
" style="fill: none; stroke: #1f77b4; stroke-width: 1.5; stroke-linecap: square"/>
    </g>
    <g id="text_10">
     <!-- Type: 1 -->
     <g transform="translate(404.827643 48.514776)scale(0.1 -0.1)">
      <defs>
       <path id="CMSS17-54" d="M 2317 3987 
L 2848 3987 
C 2925 3987 3002 3980 3078 3980 
L 3878 3980 
L 3878 4396 
L 218 4396 
L 218 3980 
L 1018 3980 
C 1094 3980 1171 3987 1248 3987 
L 1779 3987 
L 1779 0 
L 2317 0 
L 2317 3987 
z
" transform="scale(0.015625)"/>
       <path id="CMSS17-79" d="M 2675 2752 
L 2176 2752 
C 1632 1293 1446 701 1434 383 
L 1427 383 
C 1408 695 1126 1459 902 2006 
L 602 2752 
L 83 2752 
L 1216 14 
C 1146 -177 1043 -464 1011 -527 
C 870 -884 774 -884 672 -884 
C 646 -884 442 -877 211 -807 
L 250 -1229 
C 410 -1261 570 -1280 685 -1280 
C 845 -1280 1165 -1280 1459 -495 
L 2675 2752 
z
" transform="scale(0.015625)"/>
       <path id="CMSS17-70" d="M 966 275 
C 1178 70 1466 -64 1773 -64 
C 2368 -64 2880 553 2880 1382 
C 2880 2147 2496 2816 1946 2816 
C 1626 2816 1242 2700 954 2470 
L 954 2764 
L 480 2764 
L 480 -1280 
L 966 -1280 
L 966 275 
z
M 966 2088 
C 1018 2166 1235 2412 1587 2412 
C 2035 2412 2394 1946 2394 1382 
C 2394 741 1958 326 1530 326 
C 1402 326 1267 358 1139 468 
C 966 624 966 721 966 812 
L 966 2088 
z
" transform="scale(0.015625)"/>
       <path id="CMSS17-65" d="M 2502 1375 
C 2502 1587 2490 2001 2285 2347 
C 2061 2713 1696 2816 1421 2816 
C 755 2816 192 2184 192 1363 
C 192 579 774 -64 1510 -64 
C 1798 -64 2150 19 2470 249 
C 2470 275 2458 414 2451 421 
C 2451 433 2432 629 2432 655 
C 2125 408 1773 326 1517 326 
C 1107 326 666 667 646 1375 
L 2502 1375 
z
M 698 1728 
C 781 2086 1062 2425 1421 2425 
C 1517 2425 1965 2412 2080 1728 
L 698 1728 
z
" transform="scale(0.015625)"/>
       <path id="CMSS17-3a" d="M 1088 2752 
L 576 2752 
L 576 2239 
L 1088 2239 
L 1088 2752 
z
M 576 512 
L 576 0 
L 1088 0 
L 1088 512 
L 576 512 
z
" transform="scale(0.015625)"/>
       <path id="CMSS17-31" d="M 1818 4288 
L 1696 4288 
C 1350 3949 947 3902 538 3891 
L 538 3520 
C 723 3526 1024 3539 1325 3673 
L 1325 371 
L 570 371 
L 570 0 
L 2573 0 
L 2573 371 
L 1818 371 
L 1818 4288 
z
" transform="scale(0.015625)"/>
      </defs>
      <use xlink:href="#CMSS17-54" transform="scale(0.996264)"/>
      <use xlink:href="#CMSS17-79" transform="translate(56.012199 0)scale(0.996264)"/>
      <use xlink:href="#CMSS17-70" transform="translate(99.01234 0)scale(0.996264)"/>
      <use xlink:href="#CMSS17-65" transform="translate(149.819722 0)scale(0.996264)"/>
      <use xlink:href="#CMSS17-3a" transform="translate(191.458544 0)scale(0.996264)"/>
      <use xlink:href="#CMSS17-31" transform="translate(259.121556 0)scale(0.996264)"/>
     </g>
    </g>
    <g id="line2d_31">
     <path d="M 376.827643 58.951954 
L 386.827643 58.951954 
L 396.827643 58.951954 
" style="fill: none; stroke: #ff7f0e; stroke-width: 1.5; stroke-linecap: square"/>
    </g>
    <g id="text_11">
     <!-- Type: 2 -->
     <g transform="translate(404.827643 62.451954)scale(0.1 -0.1)">
      <defs>
       <path id="CMSS17-32" d="M 1651 1353 
C 1830 1538 2099 1761 2285 1984 
C 2464 2201 2701 2507 2701 2953 
C 2701 3655 2227 4288 1421 4288 
C 787 4288 422 3891 250 3272 
L 499 2928 
C 640 3508 838 3878 1338 3878 
C 1888 3878 2195 3431 2195 2940 
C 2195 2354 1747 1901 1408 1563 
C 1030 1187 659 805 301 409 
L 301 0 
L 2701 0 
L 2701 435 
L 1613 435 
C 1536 435 1459 428 1382 428 
L 742 428 
L 742 435 
L 1651 1353 
z
" transform="scale(0.015625)"/>
      </defs>
      <use xlink:href="#CMSS17-54" transform="scale(0.996264)"/>
      <use xlink:href="#CMSS17-79" transform="translate(56.012199 0)scale(0.996264)"/>
      <use xlink:href="#CMSS17-70" transform="translate(99.01234 0)scale(0.996264)"/>
      <use xlink:href="#CMSS17-65" transform="translate(149.819722 0)scale(0.996264)"/>
      <use xlink:href="#CMSS17-3a" transform="translate(191.458544 0)scale(0.996264)"/>
      <use xlink:href="#CMSS17-32" transform="translate(259.121556 0)scale(0.996264)"/>
     </g>
    </g>
    <g id="line2d_32">
     <path d="M 376.827643 72.889132 
L 386.827643 72.889132 
L 396.827643 72.889132 
" style="fill: none; stroke: #2ca02c; stroke-width: 1.5; stroke-linecap: square"/>
    </g>
    <g id="text_12">
     <!-- Type: 3 -->
     <g transform="translate(404.827643 76.389132)scale(0.1 -0.1)">
      <defs>
       <path id="CMSS17-33" d="M 1005 2060 
L 1440 2060 
C 2042 2060 2214 1532 2214 1164 
C 2214 662 1933 268 1472 268 
C 1114 268 608 449 320 926 
C 275 700 275 687 250 533 
C 550 89 1037 -128 1485 -128 
C 2214 -128 2752 481 2752 1158 
C 2752 1667 2400 2092 1920 2252 
C 2304 2463 2586 2860 2586 3321 
C 2586 3859 2093 4288 1491 4288 
C 941 4288 512 3948 333 3583 
C 378 3519 493 3334 550 3238 
C 691 3615 1056 3897 1485 3897 
C 1843 3897 2080 3660 2080 3321 
C 2080 2969 1856 2585 1478 2496 
C 1453 2496 1056 2457 1005 2451 
L 1005 2060 
z
" transform="scale(0.015625)"/>
      </defs>
      <use xlink:href="#CMSS17-54" transform="scale(0.996264)"/>
      <use xlink:href="#CMSS17-79" transform="translate(56.012199 0)scale(0.996264)"/>
      <use xlink:href="#CMSS17-70" transform="translate(99.01234 0)scale(0.996264)"/>
      <use xlink:href="#CMSS17-65" transform="translate(149.819722 0)scale(0.996264)"/>
      <use xlink:href="#CMSS17-3a" transform="translate(191.458544 0)scale(0.996264)"/>
      <use xlink:href="#CMSS17-33" transform="translate(259.121556 0)scale(0.996264)"/>
     </g>
    </g>
    <g id="line2d_33">
     <path d="M 376.827643 86.826311 
L 386.827643 86.826311 
L 396.827643 86.826311 
" style="fill: none; stroke: #d62728; stroke-width: 1.5; stroke-linecap: square"/>
    </g>
    <g id="text_13">
     <!-- Type: 4 -->
     <g transform="translate(404.827643 90.326311)scale(0.1 -0.1)">
      <defs>
       <path id="CMSS17-34" d="M 2253 1088 
L 2835 1088 
L 2835 1478 
L 2253 1478 
L 2253 4224 
L 1690 4224 
L 166 1478 
L 166 1088 
L 1747 1088 
L 1747 0 
L 2253 0 
L 2253 1088 
z
M 659 1478 
C 1030 2139 1766 3474 1766 3927 
L 1766 1478 
L 659 1478 
z
" transform="scale(0.015625)"/>
      </defs>
      <use xlink:href="#CMSS17-54" transform="scale(0.996264)"/>
      <use xlink:href="#CMSS17-79" transform="translate(56.012199 0)scale(0.996264)"/>
      <use xlink:href="#CMSS17-70" transform="translate(99.01234 0)scale(0.996264)"/>
      <use xlink:href="#CMSS17-65" transform="translate(149.819722 0)scale(0.996264)"/>
      <use xlink:href="#CMSS17-3a" transform="translate(191.458544 0)scale(0.996264)"/>
      <use xlink:href="#CMSS17-34" transform="translate(259.121556 0)scale(0.996264)"/>
     </g>
    </g>
   </g>
  </g>
  <g id="text_14">
   <!-- Stage cost comparisons -->
   <g transform="translate(169.737541 15.50218)scale(0.12 -0.12)">
    <defs>
     <path id="CMSS17-53" d="M 2797 4230 
C 2515 4396 2208 4544 1690 4544 
C 864 4544 333 3934 333 3309 
C 333 3064 403 2787 653 2504 
C 902 2220 1184 2143 1542 2053 
C 1690 2014 1939 1943 1984 1924 
C 2342 1782 2515 1454 2515 1144 
C 2515 738 2202 307 1645 307 
C 1453 307 890 339 358 829 
L 269 320 
C 794 -64 1363 -128 1651 -128 
C 2438 -128 3002 494 3002 1202 
C 3002 1460 2925 1789 2656 2092 
C 2394 2381 2163 2446 1638 2588 
C 1338 2665 1146 2717 986 2916 
C 877 3058 819 3193 819 3367 
C 819 3728 1126 4121 1690 4121 
C 1971 4121 2336 4063 2707 3715 
L 2797 4230 
z
" transform="scale(0.015625)"/>
     <path id="CMSS17-74" d="M 1069 2380 
L 1901 2380 
L 1901 2752 
L 1069 2752 
L 1069 3520 
L 614 3520 
L 614 2752 
L 109 2752 
L 109 2380 
L 602 2380 
L 602 751 
C 602 384 685 -64 1107 -64 
C 1427 -64 1722 25 2003 172 
L 1901 551 
C 1747 416 1562 339 1363 339 
C 1082 339 1069 699 1069 860 
L 1069 2380 
z
" transform="scale(0.015625)"/>
     <path id="CMSS17-61" d="M 2406 1789 
C 2406 2399 1978 2816 1402 2816 
C 1120 2816 813 2764 461 2559 
L 499 2133 
C 659 2250 934 2438 1395 2438 
C 1722 2438 1920 2185 1920 1782 
L 1920 1536 
C 896 1504 256 1209 256 711 
C 256 452 416 -64 947 -64 
C 1043 -64 1562 -52 1933 224 
L 1933 -13 
L 2406 -13 
L 2406 1789 
z
M 1920 824 
C 1920 711 1920 559 1728 446 
C 1562 339 1350 326 1261 326 
C 941 326 723 503 723 723 
C 723 1165 1722 1209 1920 1216 
L 1920 824 
z
" transform="scale(0.015625)"/>
     <path id="CMSS17-67" d="M 2848 2816 
C 2483 2809 2170 2739 1914 2617 
C 1702 2783 1485 2816 1338 2816 
C 781 2816 358 2356 358 1824 
C 358 1481 550 1222 563 1209 
C 448 1049 384 876 384 684 
C 384 460 474 300 544 211 
C 211 6 166 -308 166 -429 
C 166 -896 749 -1280 1498 -1280 
C 2253 -1280 2835 -896 2835 -423 
C 2835 460 1856 467 1587 467 
L 1069 467 
C 973 467 717 467 717 793 
C 717 921 774 1004 781 1011 
C 877 940 1075 832 1338 832 
C 1869 832 2310 1279 2310 1824 
C 2310 2128 2170 2349 2112 2425 
L 2131 2425 
C 2150 2425 2419 2444 2515 2444 
C 2720 2444 2739 2438 2918 2419 
L 2848 2816 
z
M 1338 1184 
C 1120 1184 813 1317 813 1824 
C 813 2375 1165 2463 1331 2463 
C 1549 2463 1856 2330 1856 1824 
C 1856 1272 1504 1184 1338 1184 
z
M 1581 0 
C 1734 0 2381 0 2381 -436 
C 2381 -711 1984 -928 1504 -928 
C 1018 -928 621 -717 621 -429 
C 621 -397 621 0 1062 0 
L 1581 0 
z
" transform="scale(0.015625)"/>
     <path id="CMSS17-63" d="M 2464 2540 
C 2464 2585 2170 2713 2093 2739 
C 1882 2816 1613 2816 1542 2816 
C 710 2816 211 2092 211 1363 
C 211 595 768 -64 1517 -64 
C 1946 -64 2253 76 2502 243 
L 2464 665 
C 2189 454 1869 339 1523 339 
C 1024 339 698 774 698 1369 
C 698 1830 909 2412 1549 2412 
C 1901 2412 2099 2342 2394 2143 
L 2464 2540 
z
" transform="scale(0.015625)"/>
     <path id="CMSS17-6f" d="M 2829 1356 
C 2829 2175 2221 2816 1504 2816 
C 768 2816 173 2156 173 1356 
C 173 544 787 -64 1498 -64 
C 2227 -64 2829 563 2829 1356 
z
M 1504 339 
C 1050 339 659 710 659 1407 
C 659 2150 1114 2425 1498 2425 
C 1914 2425 2342 2124 2342 1407 
C 2342 684 1926 339 1504 339 
z
" transform="scale(0.015625)"/>
     <path id="CMSS17-73" d="M 2061 2623 
C 1683 2803 1389 2816 1197 2816 
C 742 2816 198 2655 198 2009 
C 198 1363 902 1222 1094 1183 
C 1389 1126 1715 1062 1715 742 
C 1715 339 1254 339 1171 339 
C 915 339 563 409 243 639 
L 166 211 
C 531 0 883 -64 1178 -64 
C 1965 -64 2163 416 2163 780 
C 2163 1094 1984 1305 1862 1401 
C 1651 1567 1574 1587 1050 1695 
C 960 1708 646 1779 646 2067 
C 646 2431 1050 2431 1139 2431 
C 1555 2431 1811 2303 1984 2207 
L 2061 2623 
z
" transform="scale(0.015625)"/>
     <path id="CMSS17-6d" d="M 4288 1878 
C 4288 2309 4179 2816 3462 2816 
C 2982 2816 2694 2515 2566 2328 
C 2451 2668 2182 2816 1798 2816 
C 1363 2816 1088 2566 941 2386 
L 941 2783 
L 474 2783 
L 474 0 
L 960 0 
L 960 1556 
C 960 1936 1101 2425 1555 2425 
C 2138 2425 2138 2013 2138 1826 
L 2138 0 
L 2624 0 
L 2624 1556 
C 2624 1936 2765 2425 3219 2425 
C 3802 2425 3802 2013 3802 1826 
L 3802 0 
L 4288 0 
L 4288 1878 
z
" transform="scale(0.015625)"/>
     <path id="CMSS17-72" d="M 954 1369 
C 954 1974 1395 2379 1958 2392 
L 1958 2816 
C 1549 2809 1165 2604 934 2270 
L 934 2783 
L 480 2783 
L 480 0 
L 954 0 
L 954 1369 
z
" transform="scale(0.015625)"/>
     <path id="CMSS17-69" d="M 979 4224 
L 442 4224 
L 442 3686 
L 979 3686 
L 979 4224 
z
M 947 2752 
L 474 2752 
L 474 0 
L 947 0 
L 947 2752 
z
" transform="scale(0.015625)"/>
     <path id="CMSS17-6e" d="M 2618 1878 
C 2618 2283 2522 2816 1798 2816 
C 1389 2816 1120 2604 941 2386 
L 941 2783 
L 474 2783 
L 474 0 
L 960 0 
L 960 1556 
C 960 1962 1114 2425 1549 2425 
C 2112 2425 2131 2045 2131 1826 
L 2131 0 
L 2618 0 
L 2618 1878 
z
" transform="scale(0.015625)"/>
    </defs>
    <use xlink:href="#CMSS17-53" transform="scale(0.996264)"/>
    <use xlink:href="#CMSS17-74" transform="translate(52.048516 0)scale(0.996264)"/>
    <use xlink:href="#CMSS17-61" transform="translate(85.880083 0)scale(0.996264)"/>
    <use xlink:href="#CMSS17-67" transform="translate(130.802003 0)scale(0.996264)"/>
    <use xlink:href="#CMSS17-65" transform="translate(177.645627 0)scale(0.996264)"/>
    <use xlink:href="#CMSS17-63" transform="translate(250.513562 0)scale(0.996264)"/>
    <use xlink:href="#CMSS17-6f" transform="translate(292.152384 0)scale(0.996264)"/>
    <use xlink:href="#CMSS17-73" transform="translate(338.996007 0)scale(0.996264)"/>
    <use xlink:href="#CMSS17-74" transform="translate(374.909549 0)scale(0.996264)"/>
    <use xlink:href="#CMSS17-63" transform="translate(439.970229 0)scale(0.996264)"/>
    <use xlink:href="#CMSS17-6f" transform="translate(481.609051 0)scale(0.996264)"/>
    <use xlink:href="#CMSS17-6d" transform="translate(528.452674 0)scale(0.996264)"/>
    <use xlink:href="#CMSS17-70" transform="translate(602.681929 0)scale(0.996264)"/>
    <use xlink:href="#CMSS17-61" transform="translate(650.886872 0)scale(0.996264)"/>
    <use xlink:href="#CMSS17-72" transform="translate(693.206339 0)scale(0.996264)"/>
    <use xlink:href="#CMSS17-69" transform="translate(725.116111 0)scale(0.996264)"/>
    <use xlink:href="#CMSS17-73" transform="translate(747.296834 0)scale(0.996264)"/>
    <use xlink:href="#CMSS17-6f" transform="translate(783.210376 0)scale(0.996264)"/>
    <use xlink:href="#CMSS17-6e" transform="translate(830.054 0)scale(0.996264)"/>
    <use xlink:href="#CMSS17-73" transform="translate(878.258943 0)scale(0.996264)"/>
   </g>
  </g>
 </g>
 <defs>
  <clipPath id="pf7dd29be9f">
   <rect x="40.989585" y="32.514776" width="405.410415" height="286.717548"/>
  </clipPath>
 </defs>
</svg>
